<?xml version="1.0" encoding="utf-8"?>
<!-- Generator: Adobe Illustrator 16.0.4, SVG Export Plug-In . SVG Version: 6.00 Build 0)  -->
<!DOCTYPE svg PUBLIC "-//W3C//DTD SVG 1.1//EN" "http://www.w3.org/Graphics/SVG/1.1/DTD/svg11.dtd">
<svg version="1.1" id="Layer_1" xmlns="http://www.w3.org/2000/svg" xmlns:xlink="http://www.w3.org/1999/xlink" x="0px" y="0px"
	 width="200px" height="200px" viewBox="0 0 200 200" enable-background="new 0 0 200 200" xml:space="preserve">
<g>
	<path fill="#E7ECDE" stroke="#231F20" stroke-width="4" stroke-miterlimit="10" d="M-165.9,81.5c-1,1-2.7,1-3.7,0L-276.6-25.6
		c-1-1-1-2.7,0-3.7l52.3-52.3c1-1,2.7-1,3.7,0l107.1,107.1c1,1,1,2.7,0,3.7L-165.9,81.5z"/>
	<path fill="#D7DDDE" stroke="#231F20" stroke-width="4" stroke-miterlimit="10" d="M-168.5-29.4l55,54.9c1,1,1,2.7,0,3.7
		l-52.3,52.3c-1,1-2.7,1-3.7,0l-54.9-54.9"/>
	
		<circle fill="#F5CB5C" stroke="#231F20" stroke-width="4" stroke-linecap="round" stroke-linejoin="round" stroke-miterlimit="10" cx="-195.2" cy="-0.1" r="29.3"/>
	
		<text transform="matrix(0.7071 0.7071 -0.7071 0.7071 -212.9756 2.6719)" fill="#231F20" font-family="'FuturaStd-Book'" font-size="39.0072">S</text>
	<line fill="none" stroke="#231F20" stroke-width="4" stroke-miterlimit="10" x1="-204.6" y1="9.7" x2="-208.3" y2="13.4"/>
	<line fill="none" stroke="#231F20" stroke-width="4" stroke-miterlimit="10" x1="-180.9" y1="-14" x2="-184.6" y2="-10.3"/>
</g>
<g>
	<g>
		
			<path fill="#E7ECDE" stroke="#231F20" stroke-width="4" stroke-linecap="round" stroke-linejoin="round" stroke-miterlimit="10" d="
			M14.6-124.9H2.8v-52.2c0-13-10.6-23.6-23.6-23.6H-22c-13,0-23.6,10.6-23.6,23.6v33.1h-11.8v-33.1c0-19.6,15.9-35.5,35.5-35.5h1.2
			c19.6,0,35.5,15.9,35.5,35.5V-124.9z"/>
	</g>
	
		<rect x="-65.2" y="-155.8" fill="#F5CB5C" stroke="#231F20" stroke-width="4" stroke-linecap="round" stroke-linejoin="round" stroke-miterlimit="10" width="87.6" height="82.3"/>
	
		<polyline fill="#DDBB59" stroke="#231F20" stroke-width="4" stroke-linecap="round" stroke-linejoin="round" stroke-miterlimit="10" points="
		22.4,-155.8 22.4,-73.5 -65.2,-73.5 	"/>
	<path fill="#22BBB9" stroke="#231F20" stroke-width="4" stroke-miterlimit="10" d="M29.2-132.5c0,2.8-2.2,5-5,5H-9.9
		c-2.8,0-5-2.2-5-5l0,0c0-2.8,2.2-5,5-5h34.1C27-137.5,29.2-135.3,29.2-132.5L29.2-132.5z"/>
	<path fill="#22BBB9" stroke="#231F20" stroke-width="4" stroke-miterlimit="10" d="M29.2-117c0,2.8-2.2,5-5,5H-9.9
		c-2.8,0-5-2.2-5-5l0,0c0-2.8,2.2-5,5-5h34.1C27-122,29.2-119.8,29.2-117L29.2-117z"/>
	<path fill="#22BBB9" stroke="#231F20" stroke-width="4" stroke-miterlimit="10" d="M29.2-101.4c0,2.8-2.2,5-5,5H-9.9
		c-2.8,0-5-2.2-5-5l0,0c0-2.8,2.2-5,5-5h34.1C27-106.4,29.2-104.2,29.2-101.4L29.2-101.4z"/>
</g>
<rect x="280.9" y="28.2" fill="#D7DDDE" stroke="#231F20" stroke-width="4" stroke-miterlimit="10" width="18.5" height="18.5"/>
<rect x="241.7" y="52.7" transform="matrix(0.7071 -0.7071 0.7071 0.7071 28.2273 192.0509)" fill="#D7DDDE" stroke="#231F20" stroke-width="4" stroke-miterlimit="10" width="8.5" height="18.5"/>
<circle fill="#F5CB5C" cx="290.2" cy="105" r="62"/>
<path fill="#DDBB59" d="M333.8,61.2c24.2,24.2,24.2,63.5,0,87.7c-24.2,24.2-63.5,24.2-87.7,0"/>
<circle fill="none" stroke="#231F20" stroke-width="4" stroke-linecap="round" stroke-linejoin="round" stroke-miterlimit="10" cx="290" cy="105" r="62"/>
<path fill="#FFFFFF" stroke="#231F20" stroke-width="4" stroke-miterlimit="10" d="M290.2,152c-25.9,0-47-21.1-47-47s21.1-47,47-47
	s47,21.1,47,47S316.1,152,290.2,152z"/>
<rect x="271.4" y="16.5" fill="#F5CB5C" stroke="#231F20" stroke-width="4" stroke-linecap="round" stroke-linejoin="round" stroke-miterlimit="10" width="37.5" height="14.8"/>
<line fill="none" stroke="#231F20" stroke-width="4" stroke-linecap="round" stroke-linejoin="round" stroke-miterlimit="10" x1="290.2" y1="105" x2="290.2" y2="71.5"/>
<polyline fill="#DDBB59" stroke="#231F20" stroke-width="4" stroke-linecap="square" stroke-linejoin="round" stroke-miterlimit="10" points="
	282,31.2 308.9,31.2 308.9,16.5 296.8,16.5 "/>
<g id="browser">
	<path fill="#FFFFFF" stroke="#231F20" stroke-width="4" stroke-linecap="square" stroke-miterlimit="10" d="M168.8,147.8
		c0,0.7-0.6,1.3-1.3,1.3h-145c-0.7,0-1.3-0.6-1.3-1.3V32.5c0-0.7,0.6-1.3,1.3-1.3h145c0.7,0,1.3,0.6,1.3,1.3V147.8z"/>
	<path fill="#E7ECDE" stroke="#231F20" stroke-width="4" stroke-miterlimit="10" d="M21.2,43.2v-11c0-0.7,0.6-1.3,1.3-1.3h145
		c0.7,0,1.3,0.6,1.3,1.3v21H21.2V43.2z"/>
	
		<circle fill="#F05A28" stroke="#231F20" stroke-width="4" stroke-linecap="round" stroke-linejoin="round" stroke-miterlimit="10" cx="33.9" cy="42" r="5.7"/>
	
		<circle fill="#F5CB5C" stroke="#231F20" stroke-width="4" stroke-linecap="round" stroke-linejoin="round" stroke-miterlimit="10" cx="51.3" cy="42" r="5.7"/>
	
		<circle fill="#22BBB9" stroke="#231F20" stroke-width="4" stroke-linecap="round" stroke-linejoin="round" stroke-miterlimit="10" cx="68.8" cy="42" r="5.7"/>
</g>
<rect x="109.5" y="64.2" fill="#F05A28" stroke="#231F20" stroke-width="4" stroke-linecap="round" stroke-linejoin="round" stroke-miterlimit="10" width="47" height="74.3"/>
<line fill="none" stroke="#231F20" stroke-width="4" stroke-linecap="round" stroke-linejoin="round" stroke-miterlimit="10" x1="33.9" y1="72.2" x2="92.5" y2="72.2"/>
<line fill="none" stroke="#231F20" stroke-width="4" stroke-linecap="round" stroke-linejoin="round" stroke-miterlimit="10" x1="33.9" y1="82.2" x2="82.5" y2="82.2"/>
<line fill="none" stroke="#231F20" stroke-width="4" stroke-linecap="round" stroke-linejoin="round" stroke-miterlimit="10" x1="33.9" y1="92.2" x2="89.5" y2="92.2"/>
<line fill="none" stroke="#231F20" stroke-width="4" stroke-linecap="round" stroke-linejoin="round" stroke-miterlimit="10" x1="33.9" y1="102.2" x2="72.5" y2="102.2"/>
</svg>
