<?xml version="1.0" encoding="utf-8"?>
<!-- Generator: Adobe Illustrator 16.0.4, SVG Export Plug-In . SVG Version: 6.00 Build 0)  -->
<!DOCTYPE svg PUBLIC "-//W3C//DTD SVG 1.1//EN" "http://www.w3.org/Graphics/SVG/1.1/DTD/svg11.dtd">
<svg version="1.1" id="Layer_1" xmlns="http://www.w3.org/2000/svg" xmlns:xlink="http://www.w3.org/1999/xlink" x="0px" y="0px"
	 width="300px" height="200px" viewBox="-100 0 300 200" enable-background="new -100 0 300 200" xml:space="preserve">
<g>
	<path fill="#E7ECDE" stroke="#231F20" stroke-width="4" stroke-miterlimit="10" d="M519.6,163.8c-1,1-2.7,1-3.7,0L408.8,56.7
		c-1-1-1-2.7,0-3.7l52.3-52.3c1-1,2.7-1,3.7,0l107.1,107.1c1,1,1,2.7,0,3.7L519.6,163.8z"/>
	<path fill="#D7DDDE" stroke="#231F20" stroke-width="4" stroke-miterlimit="10" d="M516.9,52.9l55,54.9c1,1,1,2.7,0,3.7l-52.3,52.3
		c-1,1-2.7,1-3.7,0l-55-54.9"/>
	
		<circle fill="#F5CB5C" stroke="#231F20" stroke-width="4" stroke-linecap="round" stroke-linejoin="round" stroke-miterlimit="10" cx="490.3" cy="82.2" r="29.3"/>
	
		<text transform="matrix(0.7071 0.7071 -0.7071 0.7071 472.4746 84.9668)" fill="#231F20" font-family="'FuturaStd-Book'" font-size="39.0072">S</text>
	<line fill="none" stroke="#231F20" stroke-width="4" stroke-miterlimit="10" x1="480.8" y1="92" x2="477.1" y2="95.7"/>
	<line fill="none" stroke="#231F20" stroke-width="4" stroke-miterlimit="10" x1="504.6" y1="68.3" x2="500.9" y2="72"/>
</g>
<g>
	<g>
		
			<path fill="#E7ECDE" stroke="#231F20" stroke-width="4" stroke-linecap="round" stroke-linejoin="round" stroke-miterlimit="10" d="
			M709.6,177.3h-11.8v-52.2c0-13-10.6-23.6-23.6-23.6H673c-13,0-23.6,10.6-23.6,23.6v33.1h-11.8v-33.1c0-19.6,15.9-35.5,35.5-35.5
			h1.2c19.6,0,35.5,15.9,35.5,35.5V177.3z"/>
	</g>
	
		<rect x="629.8" y="146.4" fill="#F5CB5C" stroke="#231F20" stroke-width="4" stroke-linecap="round" stroke-linejoin="round" stroke-miterlimit="10" width="87.6" height="82.3"/>
	
		<polyline fill="#DDBB59" stroke="#231F20" stroke-width="4" stroke-linecap="round" stroke-linejoin="round" stroke-miterlimit="10" points="
		717.4,146.4 717.4,228.7 629.8,228.7 	"/>
	<path fill="#22BBB9" stroke="#231F20" stroke-width="4" stroke-miterlimit="10" d="M724.2,169.6c0,2.8-2.2,5-5,5h-34.1
		c-2.8,0-5-2.2-5-5l0,0c0-2.8,2.2-5,5-5h34.1C722,164.6,724.2,166.8,724.2,169.6L724.2,169.6z"/>
	<path fill="#22BBB9" stroke="#231F20" stroke-width="4" stroke-miterlimit="10" d="M724.2,185.2c0,2.8-2.2,5-5,5h-34.1
		c-2.8,0-5-2.2-5-5l0,0c0-2.8,2.2-5,5-5h34.1C722,180.1,724.2,182.4,724.2,185.2L724.2,185.2z"/>
	<path fill="#22BBB9" stroke="#231F20" stroke-width="4" stroke-miterlimit="10" d="M724.2,200.7c0,2.8-2.2,5-5,5h-34.1
		c-2.8,0-5-2.2-5-5l0,0c0-2.8,2.2-5,5-5h34.1C722,195.7,724.2,198,724.2,200.7L724.2,200.7z"/>
</g>
<rect x="905.8" y="30.9" fill="#D7DDDE" stroke="#231F20" stroke-width="4" stroke-miterlimit="10" width="18.5" height="18.5"/>
<rect x="866.5" y="55.3" transform="matrix(0.7071 -0.7071 0.7071 0.7071 209.4048 634.6418)" fill="#D7DDDE" stroke="#231F20" stroke-width="4" stroke-miterlimit="10" width="8.5" height="18.5"/>
<circle fill="#F5CB5C" cx="915" cy="107.6" r="62"/>
<path fill="#DDBB59" d="M958.7,63.8c24.2,24.2,24.2,63.5,0,87.7c-24.2,24.2-63.5,24.2-87.7,0"/>
<circle fill="none" stroke="#231F20" stroke-width="4" stroke-linecap="round" stroke-linejoin="round" stroke-miterlimit="10" cx="914.8" cy="107.6" r="62"/>
<path fill="#FFFFFF" stroke="#231F20" stroke-width="4" stroke-miterlimit="10" d="M915,154.6c-25.9,0-47-21.1-47-47s21.1-47,47-47
	s47,21.1,47,47S940.9,154.6,915,154.6z"/>
<rect x="896.2" y="19.1" fill="#F5CB5C" stroke="#231F20" stroke-width="4" stroke-linecap="round" stroke-linejoin="round" stroke-miterlimit="10" width="37.5" height="14.8"/>
<line fill="none" stroke="#231F20" stroke-width="4" stroke-linecap="round" stroke-linejoin="round" stroke-miterlimit="10" x1="915" y1="107.6" x2="915" y2="74.1"/>
<polyline fill="#DDBB59" stroke="#231F20" stroke-width="4" stroke-linecap="square" stroke-linejoin="round" stroke-miterlimit="10" points="
	906.8,33.9 933.8,33.9 933.8,19.1 921.6,19.1 "/>
<g id="browser">
	<path fill="#FFFFFF" stroke="#231F20" stroke-width="4" stroke-linecap="square" stroke-miterlimit="10" d="M318.5-119.3
		c0,0.7-0.6,1.3-1.3,1.3h-145c-0.7,0-1.3-0.6-1.3-1.3v-115.4c0-0.7,0.6-1.3,1.3-1.3h145c0.7,0,1.3,0.6,1.3,1.3V-119.3z"/>
	<path fill="#E7ECDE" stroke="#231F20" stroke-width="4" stroke-miterlimit="10" d="M170.9-223.9v-11c0-0.7,0.6-1.3,1.3-1.3h145
		c0.7,0,1.3,0.6,1.3,1.3v21H170.9V-223.9z"/>
	
		<circle fill="#F05A28" stroke="#231F20" stroke-width="4" stroke-linecap="round" stroke-linejoin="round" stroke-miterlimit="10" cx="183.5" cy="-225.1" r="5.7"/>
	
		<circle fill="#F5CB5C" stroke="#231F20" stroke-width="4" stroke-linecap="round" stroke-linejoin="round" stroke-miterlimit="10" cx="201" cy="-225.1" r="5.7"/>
	
		<circle fill="#22BBB9" stroke="#231F20" stroke-width="4" stroke-linecap="round" stroke-linejoin="round" stroke-miterlimit="10" cx="218.5" cy="-225.1" r="5.7"/>
</g>
<line fill="none" stroke="#231F20" stroke-width="4" stroke-linecap="round" stroke-linejoin="round" stroke-miterlimit="10" x1="183.5" y1="-194.9" x2="242.2" y2="-194.9"/>
<line fill="none" stroke="#231F20" stroke-width="4" stroke-linecap="round" stroke-linejoin="round" stroke-miterlimit="10" x1="183.5" y1="-184.9" x2="232.2" y2="-184.9"/>
<line fill="none" stroke="#231F20" stroke-width="4" stroke-linecap="round" stroke-linejoin="round" stroke-miterlimit="10" x1="183.5" y1="-174.9" x2="239.2" y2="-174.9"/>
<line fill="none" stroke="#231F20" stroke-width="4" stroke-linecap="round" stroke-linejoin="round" stroke-miterlimit="10" x1="183.5" y1="-164.9" x2="222.2" y2="-164.9"/>
<polygon fill="#22BBB9" stroke="#231F20" stroke-width="4" stroke-linecap="round" stroke-linejoin="round" stroke-miterlimit="10" points="
	336.2,-135.9 336.2,-194.9 300.8,-194.9 300.8,-135.9 284.9,-135.9 318.5,-101 352.1,-135.9 "/>
<path fill="#E7ECDE" stroke="#231F20" stroke-width="4" stroke-linecap="round" stroke-linejoin="round" stroke-miterlimit="10" d="
	M57.8,25v45.3H-56.8V49.7V25H57.8z"/>
<path fill="#E7ECDE" stroke="#231F20" stroke-width="4" stroke-linecap="round" stroke-linejoin="round" stroke-miterlimit="10" d="
	M143.8,70.3v90.2H-56.8V95V70.3H143.8z"/>
<text transform="matrix(1 0 0 1 -43.4028 55.9614)" font-family="'FuturaStd-Medium'" font-size="24">Window</text>
<text transform="matrix(1 0 0 1 -43.4028 144.9609)" font-family="'FuturaStd-Medium'" font-size="24">Extensions</text>
<line fill="none" stroke="#231F20" stroke-width="4" stroke-linecap="round" stroke-linejoin="round" stroke-miterlimit="10" x1="-56.8" y1="114" x2="143.8" y2="114"/>
<path d="M126.2,125.1l35.3,33l-17.1,1.5l9.7,21.5l-6.5,2.9l-9.4-21.8l-12.1,11.5V125.1"/>
</svg>
