<?xml version="1.0" encoding="utf-8"?>
<!-- Generator: Adobe Illustrator 16.0.4, SVG Export Plug-In . SVG Version: 6.00 Build 0)  -->
<!DOCTYPE svg PUBLIC "-//W3C//DTD SVG 1.1//EN" "http://www.w3.org/Graphics/SVG/1.1/DTD/svg11.dtd">
<svg version="1.1" id="Layer_1" xmlns="http://www.w3.org/2000/svg" xmlns:xlink="http://www.w3.org/1999/xlink" x="0px" y="0px"
	 width="200px" height="200px" viewBox="0 0 200 200" enable-background="new 0 0 200 200" xml:space="preserve">
<g>
	<path fill="#22BBB9" d="M172.2,78.5c1,1,1,2.5,0,3.5L70,184.2c-1,1-2.5,1-3.5,0L3.9,121.6c-1-1-1-2.5,0-3.5L106,15.8
		c1-1,2.5-1,3.5,0L172.2,78.5z"/>
	<path fill="#1FB6A9" d="M140.2,47.5l32,31c1,1,1,2.5,0,3.5L70,184.2c-1,1-2.5,1-3.5,0l-32-31"/>
	
		<path fill="#E7ECDE" stroke="#231F20" stroke-width="4" stroke-linecap="round" stroke-linejoin="round" stroke-miterlimit="10" d="
		M88.4,121.3c1,1,1,2.5,0,3.5l-29.9,29.9c-1,1-2.5,1-3.5,0l-34.2-34.2c-1-1-1-2.5,0-3.5l29.9-29.9c1-1,2.5-1,3.5,0L88.4,121.3z"/>
	
		<circle fill="#F5CB5C" stroke="#231F20" stroke-width="4" stroke-linecap="round" stroke-linejoin="round" stroke-miterlimit="10" cx="49.7" cy="116" r="11.6"/>
	
		<path fill="#F5CB5C" stroke="#231F20" stroke-width="4" stroke-linecap="round" stroke-linejoin="round" stroke-miterlimit="10" d="
		M84.2,117.1c-7.7,1.9-15.1,6-21.3,12.1c-6.1,6.1-10.2,13.5-12.1,21.3l4.3,4.3c0,0,1.6,1.9,2.9,0.6c1.3-1.3,29.8-29.8,29.8-29.8
		s2.4-2.4,0.6-4.1C86.7,119.6,84.2,117.1,84.2,117.1z"/>
	
		<line fill="none" stroke="#231F20" stroke-width="4" stroke-linecap="round" stroke-linejoin="round" stroke-miterlimit="10" x1="65.1" y1="78.8" x2="96.3" y2="47.7"/>
	
		<line fill="none" stroke="#231F20" stroke-width="4" stroke-linecap="round" stroke-linejoin="round" stroke-miterlimit="10" x1="73.9" y1="87.6" x2="118.2" y2="43.3"/>
	
		<line fill="none" stroke="#231F20" stroke-width="4" stroke-linecap="round" stroke-linejoin="round" stroke-miterlimit="10" x1="82.7" y1="96.4" x2="91.9" y2="87.2"/>
	
		<line fill="none" stroke="#231F20" stroke-width="4" stroke-linecap="round" stroke-linejoin="round" stroke-miterlimit="10" x1="95.9" y1="83.2" x2="118.2" y2="60.8"/>
	
		<line fill="none" stroke="#231F20" stroke-width="4" stroke-linecap="round" stroke-linejoin="round" stroke-miterlimit="10" x1="91.5" y1="105.1" x2="115.8" y2="80.8"/>
	<path fill="none" stroke="#231F20" stroke-width="4" stroke-linecap="round" stroke-linejoin="round" stroke-miterlimit="10" d="
		M172.2,78.5c1,1,1,2.5,0,3.5L70,184.2c-1,1-2.5,1-3.5,0L3.9,121.6c-1-1-1-2.5,0-3.5L106,15.8c1-1,2.5-1,3.5,0L172.2,78.5z"/>
</g>
</svg>
