<?xml version="1.0" encoding="utf-8"?>
<!-- Generator: Adobe Illustrator 16.0.4, SVG Export Plug-In . SVG Version: 6.00 Build 0)  -->
<!DOCTYPE svg PUBLIC "-//W3C//DTD SVG 1.1//EN" "http://www.w3.org/Graphics/SVG/1.1/DTD/svg11.dtd">
<svg version="1.1" id="Layer_1" xmlns="http://www.w3.org/2000/svg" xmlns:xlink="http://www.w3.org/1999/xlink" x="0px" y="0px"
	 width="200px" height="200px" viewBox="0 0 200 200" enable-background="new 0 0 200 200" xml:space="preserve">
<g>
	<path fill="#E7ECDE" stroke="#231F20" stroke-width="4" stroke-miterlimit="10" d="M129.1,181.5c-1,1-2.7,1-3.7,0L18.4,74.4
		c-1-1-1-2.7,0-3.7l52.3-52.3c1-1,2.7-1,3.7,0l107.1,107.1c1,1,1,2.7,0,3.7L129.1,181.5z"/>
	<path fill="#D7DDDE" stroke="#231F20" stroke-width="4" stroke-miterlimit="10" d="M126.5,70.6l55,54.9c1,1,1,2.7,0,3.7l-52.3,52.3
		c-1,1-2.7,1-3.7,0l-54.9-54.9"/>
	
		<circle fill="#F5CB5C" stroke="#231F20" stroke-width="4" stroke-linecap="round" stroke-linejoin="round" stroke-miterlimit="10" cx="99.8" cy="99.9" r="29.3"/>
	
		<text transform="matrix(0.7071 0.7071 -0.7071 0.7071 82.0244 102.6494)" fill="#231F20" font-family="'FuturaStd-Book'" font-size="39.0072">S</text>
	<line fill="none" stroke="#231F20" stroke-width="4" stroke-miterlimit="10" x1="90.4" y1="109.7" x2="86.7" y2="113.4"/>
	<line fill="none" stroke="#231F20" stroke-width="4" stroke-miterlimit="10" x1="114.1" y1="86" x2="110.4" y2="89.6"/>
</g>
</svg>
