<?xml version="1.0" encoding="utf-8"?>
<!-- Generator: Adobe Illustrator 16.0.4, SVG Export Plug-In . SVG Version: 6.00 Build 0)  -->
<!DOCTYPE svg PUBLIC "-//W3C//DTD SVG 1.1//EN" "http://www.w3.org/Graphics/SVG/1.1/DTD/svg11.dtd">
<svg version="1.1" id="Layer_1" xmlns="http://www.w3.org/2000/svg" xmlns:xlink="http://www.w3.org/1999/xlink" x="0px" y="0px"
	 width="200px" height="200px" viewBox="0 0 200 200" enable-background="new 0 0 200 200" xml:space="preserve">
<g>
	
		<path fill="#E7ECDE" stroke="#231F20" stroke-width="4" stroke-linecap="round" stroke-linejoin="round" stroke-miterlimit="10" d="
		M151.6,110.4c0,28.5-51.6,51.6-51.6,51.6s-51.6-23.1-51.6-51.6V40.3c0,0,26-4.7,51.6-22.4c30.1,18.8,51.6,22.4,51.6,22.4V110.4z"/>
	<path fill="#D7DDDE" stroke="#231F20" stroke-width="4" stroke-miterlimit="10" d="M151.6,40.3v70.1c0,28.5-51.6,51.6-51.6,51.6
		s-30.6-13.7-44.7-33"/>
	
		<polygon fill="#F5CB5C" stroke="#231F20" stroke-width="4" stroke-linecap="round" stroke-linejoin="round" stroke-miterlimit="10" points="
		100,55.4 108.9,73.4 128.7,76.3 114.3,90.3 117.7,110 100,100.7 82.3,110 85.7,90.3 71.3,76.3 91.1,73.4 	"/>
</g>
</svg>
