<?xml version="1.0" encoding="utf-8"?>
<!-- Generator: Adobe Illustrator 16.0.4, SVG Export Plug-In . SVG Version: 6.00 Build 0)  -->
<!DOCTYPE svg PUBLIC "-//W3C//DTD SVG 1.1//EN" "http://www.w3.org/Graphics/SVG/1.1/DTD/svg11.dtd">
<svg version="1.1" id="Layer_1" xmlns="http://www.w3.org/2000/svg" xmlns:xlink="http://www.w3.org/1999/xlink" x="0px" y="0px"
	 width="1000px" height="500px" viewBox="0 0 1000 500" enable-background="new 0 0 1000 500" xml:space="preserve">
<g id="browser">
	<path fill="#FFFFFF" stroke="#231F20" stroke-width="4" stroke-linecap="square" stroke-miterlimit="10" d="M996.1,366.3
		c0,2.2-1.8,4-4,4H481.3c-2.2,0-4-1.8-4-4V9.2c0-2.2,1.8-4,4-4h510.8c2.2,0,4,1.8,4,4V366.3z"/>
	<path fill="#E7ECDE" stroke="#231F20" stroke-width="4" stroke-miterlimit="10" d="M477.3,42.3V8.2c0-2.2,1.8-4,4-4h510.8
		c2.2,0,4,1.8,4,4v34.2H477.3z"/>
	
		<circle fill="#F05A28" stroke="#231F20" stroke-width="4" stroke-linecap="round" stroke-linejoin="round" stroke-miterlimit="10" cx="502.1" cy="22.6" r="9.5"/>
	
		<circle fill="#F5CB5C" stroke="#231F20" stroke-width="4" stroke-linecap="round" stroke-linejoin="round" stroke-miterlimit="10" cx="531.1" cy="22.6" r="9.5"/>
	
		<circle fill="#22BBB9" stroke="#231F20" stroke-width="4" stroke-linecap="round" stroke-linejoin="round" stroke-miterlimit="10" cx="560.1" cy="22.6" r="9.5"/>
	
		<polygon fill="#F05A28" stroke="#231F20" stroke-width="4" stroke-linecap="round" stroke-linejoin="round" stroke-miterlimit="10" points="
		703.7,148.4 736.6,91.5 769.5,148.4 	"/>
	
		<line fill="none" stroke="#231F20" stroke-width="4" stroke-linecap="round" stroke-linejoin="round" stroke-miterlimit="10" x1="737" y1="117" x2="737" y2="134"/>
</g>
<g id="id">
	<path fill="#E7ECDE" stroke="#231F20" stroke-width="4" stroke-miterlimit="10" d="M124.4,347.8c0,0.9-0.7,1.7-1.7,1.7H25.6
		c-0.9,0-1.7-0.7-1.7-1.7v-59.5c0-0.9,0.7-1.7,1.7-1.7h97.2c0.9,0,1.7,0.7,1.7,1.7V347.8z"/>
	
		<path fill="#E7ECDE" stroke="#231F20" stroke-width="4" stroke-linecap="round" stroke-linejoin="round" stroke-miterlimit="10" d="
		M68.3,331.4c0,0.9-0.7,1.7-1.7,1.7H38.2c-0.9,0-1.7-0.7-1.7-1.7l0-32.5c0-0.9,0.7-1.7,1.7-1.7h28.4c0.9,0,1.7,0.7,1.7,1.7
		L68.3,331.4z"/>
	
		<circle fill="#F5CB5C" stroke="#231F20" stroke-width="4" stroke-linecap="round" stroke-linejoin="round" stroke-miterlimit="10" cx="52.4" cy="310.4" r="7.8"/>
	
		<path fill="#F5CB5C" stroke="#231F20" stroke-width="4" stroke-linecap="round" stroke-linejoin="round" stroke-miterlimit="10" d="
		M68.3,327.3c-4.6-2.8-10-4.4-15.9-4.4c-5.8,0-11.3,1.6-15.9,4.4l0,4.1c0,0-0.2,1.7,1.1,1.7c1.3,0,28.4,0,28.4,0s2.3,0,2.3-1.7
		C68.3,329.7,68.3,327.3,68.3,327.3z"/>
	
		<line fill="none" stroke="#231F20" stroke-width="4" stroke-linecap="round" stroke-linejoin="round" stroke-miterlimit="10" x1="78.4" y1="303.1" x2="108" y2="303.1"/>
	
		<line fill="none" stroke="#231F20" stroke-width="4" stroke-linecap="round" stroke-linejoin="round" stroke-miterlimit="10" x1="78.4" y1="311.8" x2="100.1" y2="311.8"/>
	
		<line fill="none" stroke="#231F20" stroke-width="4" stroke-linecap="round" stroke-linejoin="round" stroke-miterlimit="10" x1="34" y1="361" x2="115" y2="361"/>
</g>
<g id="file">
	<path fill="#E7ECDE" stroke="#231F20" stroke-width="4" stroke-miterlimit="10" d="M253.8,347.8c0,0.9-0.7,1.7-1.7,1.7H185
		c-0.9,0-1.7-0.7-1.7-1.7v-79.5c0-0.9,0.7-1.7,1.7-1.7h47.2l21.7,21.7V347.8z"/>
	<g>
		
			<line fill="none" stroke="#231F20" stroke-width="4" stroke-linecap="round" stroke-linejoin="round" stroke-miterlimit="10" x1="173" y1="361" x2="264" y2="361"/>
		
			<line fill="none" stroke="#231F20" stroke-width="4" stroke-linecap="round" stroke-linejoin="round" stroke-miterlimit="10" x1="193" y1="371" x2="244" y2="371"/>
	</g>
	
		<polyline fill="none" stroke="#231F20" stroke-width="4" stroke-linecap="round" stroke-linejoin="round" stroke-miterlimit="10" points="
		253,288 232,288 232,267 	"/>
</g>
<g id="pic">
	<path fill="#E7ECDE" stroke="#231F20" stroke-width="4" stroke-miterlimit="10" d="M410.4,347.8c0,0.9-0.7,1.7-1.7,1.7h-93.2
		c-0.9,0-1.7-0.7-1.7-1.7v-69.5c0-0.9,0.7-1.7,1.7-1.7h93.2c0.9,0,1.7,0.7,1.7,1.7V347.8z"/>
	<rect x="324" y="287" fill="#E7ECDE" stroke="#231F20" stroke-width="4" stroke-miterlimit="10" width="76" height="52"/>
	
		<line fill="none" stroke="#231F20" stroke-width="4" stroke-linecap="round" stroke-linejoin="round" stroke-miterlimit="10" x1="342" y1="361" x2="383" y2="361"/>
	
		<path fill="#22BBB9" stroke="#231F20" stroke-width="4" stroke-linecap="round" stroke-linejoin="round" stroke-miterlimit="10" d="
		M399.9,339c0-11-8.5-21.1-19-21.1c-2.6,0-5,0.4-7.3,1.4c-5-6.9-13.1-11.4-22.3-11.4c-15.1,0-27.4,16.1-27.4,31.1H399.9z"/>
	
		<path fill="#F5CB5C" stroke="#231F20" stroke-width="4" stroke-linecap="round" stroke-linejoin="round" stroke-miterlimit="10" d="
		M400,311.2c-11.7,0-24.7-9.5-31-24.2l31,0L400,311.2z"/>
</g>
</svg>
