<?xml version="1.0" encoding="utf-8"?>
<!-- Generator: Adobe Illustrator 16.0.4, SVG Export Plug-In . SVG Version: 6.00 Build 0)  -->
<!DOCTYPE svg PUBLIC "-//W3C//DTD SVG 1.1//EN" "http://www.w3.org/Graphics/SVG/1.1/DTD/svg11.dtd">
<svg version="1.1" xmlns="http://www.w3.org/2000/svg" xmlns:xlink="http://www.w3.org/1999/xlink" x="0px" y="0px" width="1000px"
	 height="400px" viewBox="0 0 1000 400" enable-background="new 0 0 1000 400" xml:space="preserve">
<g id="Layer_2">
</g>
<g id="Layer_1">
	<g id="doc">
		<path fill="#F4F5F5" stroke="#231F20" stroke-width="4" stroke-miterlimit="10" d="M291.7,355.2c0,3.2-2.6,5.8-5.8,5.8h-195
			c-3.2,0-5.8-2.6-5.8-5.8V106.9c0-3.2,2.6-5.8,5.8-5.8h195c3.2,0,5.8,2.6,5.8,5.8V355.2z"/>
		
			<line fill="none" stroke="#231F20" stroke-width="4" stroke-linecap="round" stroke-linejoin="round" stroke-miterlimit="10" x1="109.3" y1="148.6" x2="141.1" y2="148.6"/>
		
			<line fill="none" stroke="#231F20" stroke-width="4" stroke-linecap="round" stroke-linejoin="round" stroke-miterlimit="10" x1="148.3" y1="148.6" x2="195.1" y2="148.6"/>
		
			<line fill="none" stroke="#231F20" stroke-width="4" stroke-linecap="round" stroke-linejoin="round" stroke-miterlimit="10" x1="201.7" y1="148.6" x2="261.1" y2="148.6"/>
		
			<line fill="none" stroke="#231F20" stroke-width="4" stroke-linecap="round" stroke-linejoin="round" stroke-miterlimit="10" x1="109.3" y1="160.6" x2="201.6" y2="160.6"/>
		
			<line fill="none" stroke="#231F20" stroke-width="4" stroke-linecap="round" stroke-linejoin="round" stroke-miterlimit="10" x1="208.3" y1="160.6" x2="269.5" y2="160.6"/>
		
			<line fill="none" stroke="#231F20" stroke-width="4" stroke-linecap="round" stroke-linejoin="round" stroke-miterlimit="10" x1="109.3" y1="172.6" x2="261.6" y2="172.6"/>
		
			<line fill="none" stroke="#231F20" stroke-width="4" stroke-linecap="round" stroke-linejoin="round" stroke-miterlimit="10" x1="109.3" y1="184.6" x2="177.5" y2="184.6"/>
		
			<line fill="none" stroke="#231F20" stroke-width="4" stroke-linecap="round" stroke-linejoin="round" stroke-miterlimit="10" x1="183.7" y1="184.6" x2="251.9" y2="184.6"/>
		
			<line fill="none" stroke="#231F20" stroke-width="4" stroke-linecap="round" stroke-linejoin="round" stroke-miterlimit="10" x1="109.3" y1="196.6" x2="261.6" y2="196.6"/>
		
			<line fill="none" stroke="#231F20" stroke-width="4" stroke-linecap="round" stroke-linejoin="round" stroke-miterlimit="10" x1="109.3" y1="208.6" x2="255.6" y2="208.6"/>
		
			<line fill="none" stroke="#231F20" stroke-width="4" stroke-linecap="round" stroke-linejoin="round" stroke-miterlimit="10" x1="109.3" y1="220.6" x2="267.6" y2="220.6"/>
		
			<line fill="none" stroke="#231F20" stroke-width="4" stroke-linecap="round" stroke-linejoin="round" stroke-miterlimit="10" x1="109.3" y1="238.6" x2="142.3" y2="238.6"/>
		
			<line fill="none" stroke="#231F20" stroke-width="4" stroke-linecap="round" stroke-linejoin="round" stroke-miterlimit="10" x1="148.6" y1="238.6" x2="181.6" y2="238.6"/>
		
			<line fill="none" stroke="#231F20" stroke-width="4" stroke-linecap="round" stroke-linejoin="round" stroke-miterlimit="10" x1="109.3" y1="250.6" x2="267.6" y2="250.6"/>
		
			<line fill="none" stroke="#231F20" stroke-width="4" stroke-linecap="round" stroke-linejoin="round" stroke-miterlimit="10" x1="109.3" y1="262.6" x2="255.6" y2="262.6"/>
		
			<line fill="none" stroke="#231F20" stroke-width="4" stroke-linecap="round" stroke-linejoin="round" stroke-miterlimit="10" x1="109.3" y1="274.6" x2="261.6" y2="274.6"/>
		
			<line fill="none" stroke="#231F20" stroke-width="4" stroke-linecap="round" stroke-linejoin="round" stroke-miterlimit="10" x1="121.3" y1="292.6" x2="163.3" y2="292.6"/>
		
			<line fill="none" stroke="#231F20" stroke-width="4" stroke-linecap="round" stroke-linejoin="round" stroke-miterlimit="10" x1="121.3" y1="304.6" x2="239.5" y2="304.6"/>
		
			<line fill="none" stroke="#231F20" stroke-width="4" stroke-linecap="round" stroke-linejoin="round" stroke-miterlimit="10" x1="121.3" y1="316.6" x2="225.1" y2="316.6"/>
		
			<line fill="none" stroke="#231F20" stroke-width="4" stroke-linecap="round" stroke-linejoin="round" stroke-miterlimit="10" x1="109.3" y1="337.6" x2="267.6" y2="337.6"/>
		<path fill="#F4F5F5" stroke="#231F20" stroke-width="4" stroke-miterlimit="10" d="M291.7,355.2c0,3.2-2.6,5.8-5.8,5.8h-195
			c-3.2,0-5.8-2.6-5.8-5.8V106.9c0-3.2,2.6-5.8,5.8-5.8h195c3.2,0,5.8,2.6,5.8,5.8V355.2z"/>
		
			<line fill="none" stroke="#231F20" stroke-width="4" stroke-linecap="round" stroke-linejoin="round" stroke-miterlimit="10" x1="109.3" y1="148.6" x2="141.1" y2="148.6"/>
		
			<line fill="none" stroke="#231F20" stroke-width="4" stroke-linecap="round" stroke-linejoin="round" stroke-miterlimit="10" x1="148.3" y1="148.6" x2="195.1" y2="148.6"/>
		
			<line fill="none" stroke="#231F20" stroke-width="4" stroke-linecap="round" stroke-linejoin="round" stroke-miterlimit="10" x1="201.7" y1="148.6" x2="261.1" y2="148.6"/>
		
			<line fill="none" stroke="#231F20" stroke-width="4" stroke-linecap="round" stroke-linejoin="round" stroke-miterlimit="10" x1="109.3" y1="160.6" x2="201.6" y2="160.6"/>
		
			<line fill="none" stroke="#231F20" stroke-width="4" stroke-linecap="round" stroke-linejoin="round" stroke-miterlimit="10" x1="208.3" y1="160.6" x2="269.5" y2="160.6"/>
		
			<line fill="none" stroke="#231F20" stroke-width="4" stroke-linecap="round" stroke-linejoin="round" stroke-miterlimit="10" x1="109.3" y1="172.6" x2="261.6" y2="172.6"/>
		
			<line fill="none" stroke="#231F20" stroke-width="4" stroke-linecap="round" stroke-linejoin="round" stroke-miterlimit="10" x1="109.3" y1="184.6" x2="177.5" y2="184.6"/>
		
			<line fill="none" stroke="#231F20" stroke-width="4" stroke-linecap="round" stroke-linejoin="round" stroke-miterlimit="10" x1="183.7" y1="184.6" x2="251.9" y2="184.6"/>
		
			<line fill="none" stroke="#231F20" stroke-width="4" stroke-linecap="round" stroke-linejoin="round" stroke-miterlimit="10" x1="109.3" y1="196.6" x2="261.6" y2="196.6"/>
		
			<line fill="none" stroke="#231F20" stroke-width="4" stroke-linecap="round" stroke-linejoin="round" stroke-miterlimit="10" x1="109.3" y1="208.6" x2="255.6" y2="208.6"/>
		
			<line fill="none" stroke="#231F20" stroke-width="4" stroke-linecap="round" stroke-linejoin="round" stroke-miterlimit="10" x1="109.3" y1="220.6" x2="267.6" y2="220.6"/>
		
			<line fill="none" stroke="#231F20" stroke-width="4" stroke-linecap="round" stroke-linejoin="round" stroke-miterlimit="10" x1="109.3" y1="238.6" x2="142.3" y2="238.6"/>
		
			<line fill="none" stroke="#231F20" stroke-width="4" stroke-linecap="round" stroke-linejoin="round" stroke-miterlimit="10" x1="148.6" y1="238.6" x2="181.6" y2="238.6"/>
		
			<line fill="none" stroke="#231F20" stroke-width="4" stroke-linecap="round" stroke-linejoin="round" stroke-miterlimit="10" x1="109.3" y1="250.6" x2="267.6" y2="250.6"/>
		
			<line fill="none" stroke="#231F20" stroke-width="4" stroke-linecap="round" stroke-linejoin="round" stroke-miterlimit="10" x1="109.3" y1="262.6" x2="255.6" y2="262.6"/>
		
			<line fill="none" stroke="#231F20" stroke-width="4" stroke-linecap="round" stroke-linejoin="round" stroke-miterlimit="10" x1="109.3" y1="274.6" x2="261.6" y2="274.6"/>
		
			<line fill="none" stroke="#231F20" stroke-width="4" stroke-linecap="round" stroke-linejoin="round" stroke-miterlimit="10" x1="121.3" y1="292.6" x2="163.3" y2="292.6"/>
		
			<line fill="none" stroke="#231F20" stroke-width="4" stroke-linecap="round" stroke-linejoin="round" stroke-miterlimit="10" x1="121.3" y1="304.6" x2="239.5" y2="304.6"/>
		
			<line fill="none" stroke="#231F20" stroke-width="4" stroke-linecap="round" stroke-linejoin="round" stroke-miterlimit="10" x1="121.3" y1="316.6" x2="225.1" y2="316.6"/>
		
			<line fill="none" stroke="#231F20" stroke-width="4" stroke-linecap="round" stroke-linejoin="round" stroke-miterlimit="10" x1="109.3" y1="337.6" x2="267.6" y2="337.6"/>
		
			<line fill="none" stroke="#231F20" stroke-width="4" stroke-linecap="round" stroke-linejoin="round" stroke-miterlimit="10" x1="133.3" y1="135.4" x2="200.5" y2="135.4"/>
		
			<line fill="none" stroke="#231F20" stroke-width="4" stroke-linecap="round" stroke-linejoin="round" stroke-miterlimit="10" x1="109.3" y1="135.4" x2="123.7" y2="135.4"/>
	</g>
	<g id="tower">
		<path fill="#D7DDDE" stroke="#231F20" stroke-width="4" stroke-miterlimit="10" d="M548.3,355.7c0,3.2-2.6,5.8-5.8,5.8h-125
			c-3.2,0-5.8-2.6-5.8-5.8V97.5c0-3.2,2.6-5.8,5.8-5.8h125c3.2,0,5.8,2.6,5.8,5.8V355.7z"/>
		
			<line fill="none" stroke="#231F20" stroke-width="4" stroke-linecap="round" stroke-linejoin="round" stroke-miterlimit="10" x1="411.7" y1="184.7" x2="548.3" y2="184.7"/>
		
			<line fill="none" stroke="#231F20" stroke-width="4" stroke-linecap="round" stroke-linejoin="round" stroke-miterlimit="10" x1="435.5" y1="282.6" x2="524.5" y2="282.6"/>
		
			<line fill="none" stroke="#231F20" stroke-width="4" stroke-linecap="round" stroke-linejoin="round" stroke-miterlimit="10" x1="435.5" y1="292.6" x2="524.5" y2="292.6"/>
		
			<line fill="none" stroke="#231F20" stroke-width="4" stroke-linecap="round" stroke-linejoin="round" stroke-miterlimit="10" x1="435.5" y1="302.6" x2="524.5" y2="302.6"/>
		
			<line fill="none" stroke="#231F20" stroke-width="4" stroke-linecap="round" stroke-linejoin="round" stroke-miterlimit="10" x1="435.5" y1="312.6" x2="524.5" y2="312.6"/>
		
			<line fill="none" stroke="#231F20" stroke-width="4" stroke-linecap="round" stroke-linejoin="round" stroke-miterlimit="10" x1="435.5" y1="322.6" x2="524.5" y2="322.6"/>
		
			<line fill="none" stroke="#231F20" stroke-width="4" stroke-linecap="round" stroke-linejoin="round" stroke-miterlimit="10" x1="435.5" y1="332.6" x2="524.5" y2="332.6"/>
		
			<circle fill="none" stroke="#231F20" stroke-width="4" stroke-linecap="round" stroke-linejoin="round" stroke-miterlimit="10" cx="447.8" cy="134.7" r="12.3"/>
		
			<circle fill="none" stroke="#231F20" stroke-width="4" stroke-linecap="round" stroke-linejoin="round" stroke-miterlimit="10" cx="482.4" cy="134.7" r="12.3"/>
		
			<circle fill="none" stroke="#231F20" stroke-width="4" stroke-linecap="round" stroke-linejoin="round" stroke-miterlimit="10" cx="517" cy="134.7" r="12.3"/>
		
			<circle id="led1" fill="#F5CB5C" stroke="#231F20" stroke-width="4" stroke-linecap="round" stroke-linejoin="round" stroke-miterlimit="10" cx="447.8" cy="134.7" r="12.3"/>
		
			<circle id="led2" fill="#F5CB5C" stroke="#231F20" stroke-width="4" stroke-linecap="round" stroke-linejoin="round" stroke-miterlimit="10" cx="482.4" cy="134.7" r="12.3"/>
		
			<circle id="led3" fill="#22BBB9" stroke="#231F20" stroke-width="4" stroke-linecap="round" stroke-linejoin="round" stroke-miterlimit="10" cx="517" cy="134.7" r="12.3"/>
	</g>
	
		<path id="scanner" fill="#F5CB5C" stroke="#231F20" stroke-width="4" stroke-linecap="round" stroke-linejoin="round" stroke-miterlimit="10" d="
		M306.9,86.7c0,2.6-2.1,4.7-4.7,4.7H74.6c-2.6,0-4.7-2.1-4.7-4.7l0,0c0-2.6,2.1-4.7,4.7-4.7h227.6C304.8,82,306.9,84.1,306.9,86.7
		L306.9,86.7z"/>
	<g id="monitor">
		<path fill="#D7DDDE" stroke="#231F20" stroke-width="4" stroke-miterlimit="10" d="M923.2,288.7c0,2.2-1.8,4-4,4H588
			c-2.2,0-4-1.8-4-4v-233c0-2.2,1.8-4,4-4h331.2c2.2,0,4,1.8,4,4V288.7z"/>
		<rect x="604" y="71.7" fill="#E7ECDE" stroke="#231F20" stroke-width="4" stroke-miterlimit="10" width="299.2" height="180"/>
		<polygon fill="#D7DDDE" stroke="#231F20" stroke-width="4" stroke-miterlimit="10" points="812.6,359.5 696.9,359.5 716.9,292.5 
			792.6,292.5 		"/>
		<path fill="#D7DDDE" stroke="#231F20" stroke-width="4" stroke-miterlimit="10" d="M820.5,359.5c0,1.1-0.9,2-2,2h-129
			c-1.1,0-2-0.9-2-2v-4c0-1.1,0.9-2,2-2h129c1.1,0,2,0.9,2,2V359.5z"/>
	</g>
	<g id="id">
		
			<path fill="#22BBB9" stroke="#231F20" stroke-width="4" stroke-linecap="round" stroke-linejoin="round" stroke-miterlimit="10" d="
			M675.9,218.8c0,0.3-0.3,0.6-0.6,0.6h-27.8c-0.3,0-0.6-0.3-0.6-0.6v-20.1c0-0.3,0.3-0.6,0.6-0.6h27.8c0.3,0,0.6,0.3,0.6,0.6
			L675.9,218.8z"/>
		
			<line fill="none" stroke="#231F20" stroke-width="4" stroke-linecap="round" stroke-linejoin="round" stroke-miterlimit="10" x1="654.7" y1="206.8" x2="661.7" y2="206.8"/>
		
			<line fill="none" stroke="#231F20" stroke-width="4" stroke-linecap="round" stroke-linejoin="round" stroke-miterlimit="10" x1="696.9" y1="200.6" x2="764.1" y2="200.6"/>
		
			<line fill="none" stroke="#231F20" stroke-width="4" stroke-linecap="round" stroke-linejoin="round" stroke-miterlimit="10" x1="696.9" y1="210.6" x2="793.1" y2="210.6"/>
	</g>
	<g id="lock">
		<g>
			<g>
				<path d="M661.6,148.6c3,0,5.5,2.5,5.5,5.5v8.8l-11.4-3v-5.8c0-3,2.5-5.5,5.5-5.5H661.6 M661.6,144.6h-0.3
					c-5.3,0-9.5,4.3-9.5,9.5v8.9l19.4,5.1v-14C671.2,148.9,666.9,144.6,661.6,144.6L661.6,144.6z"/>
			</g>
		</g>
		
			<rect x="649.7" y="159.8" fill="#F5CB5C" stroke="#231F20" stroke-width="4" stroke-linecap="round" stroke-linejoin="round" stroke-miterlimit="10" width="23.5" height="19"/>
		
			<line fill="none" stroke="#231F20" stroke-width="4" stroke-linecap="round" stroke-linejoin="round" stroke-miterlimit="10" x1="696.9" y1="153.6" x2="724.1" y2="153.6"/>
		
			<line fill="none" stroke="#231F20" stroke-width="4" stroke-linecap="round" stroke-linejoin="round" stroke-miterlimit="10" x1="696.9" y1="163.6" x2="763.1" y2="163.6"/>
	</g>
	<g id="badge">
		
			<path fill="#F5CB5C" stroke="#231F20" stroke-width="4" stroke-linecap="round" stroke-linejoin="round" stroke-miterlimit="10" d="
			M672.7,121.3c0,6.2-11.2,11.2-11.2,11.2s-11.2-5-11.2-11.2v-15.2c0,0,5.6-1,11.2-4.8c6.5,4.1,11.2,4.8,11.2,4.8V121.3z"/>
		
			<line fill="none" stroke="#231F20" stroke-width="4" stroke-linecap="round" stroke-linejoin="round" stroke-miterlimit="10" x1="696.9" y1="107.6" x2="734.1" y2="107.6"/>
		
			<line fill="none" stroke="#231F20" stroke-width="4" stroke-linecap="round" stroke-linejoin="round" stroke-miterlimit="10" x1="696.9" y1="117.6" x2="793.1" y2="117.6"/>
	</g>
</g>
</svg>
