<svg version="1.1" id="Layer_1" xmlns="http://www.w3.org/2000/svg" xmlns:xlink="http://www.w3.org/1999/xlink" x="0px" y="0px"
	 width="1000px" height="500px" viewBox="0 0 1000 500" enable-background="new 0 0 1000 500" xml:space="preserve">
	<g id="level3right">
		<path fill="#F4F5F5" stroke="#231F20" stroke-width="4" stroke-miterlimit="10" d="M913,379.2c0,3.2-2.6,5.8-5.8,5.8h-195
			c-3.2,0-5.8-2.6-5.8-5.8V130.9c0-3.2,2.6-5.8,5.8-5.8h195c3.2,0,5.8,2.6,5.8,5.8V379.2z"/>
		<line fill="none" stroke="#231F20" stroke-width="8" stroke-linecap="round" stroke-linejoin="round" stroke-miterlimit="10" x1="754.6" y1="159.4" x2="821.8" y2="159.4"/>
		<line fill="none" stroke="#231F20" stroke-width="8" stroke-linecap="round" stroke-linejoin="round" stroke-miterlimit="10" x1="730.6" y1="159.4" x2="745" y2="159.4"/>
		<line fill="none" stroke="#231F20" stroke-width="4" stroke-linecap="round" stroke-linejoin="round" stroke-miterlimit="10" x1="730.6" y1="172.6" x2="762.4" y2="172.6"/>
		<line fill="none" stroke="#231F20" stroke-width="4" stroke-linecap="round" stroke-linejoin="round" stroke-miterlimit="10" x1="769.6" y1="172.6" x2="816.4" y2="172.6"/>
		<line fill="none" stroke="#231F20" stroke-width="4" stroke-linecap="round" stroke-linejoin="round" stroke-miterlimit="10" x1="823" y1="172.6" x2="882.4" y2="172.6"/>
		<line fill="none" stroke="#231F20" stroke-width="4" stroke-linecap="round" stroke-linejoin="round" stroke-miterlimit="10" x1="730.6" y1="184.6" x2="822.9" y2="184.6"/>
		<line fill="none" stroke="#231F20" stroke-width="4" stroke-linecap="round" stroke-linejoin="round" stroke-miterlimit="10" x1="829.6" y1="184.6" x2="890.9" y2="184.6"/>
		<line fill="none" stroke="#231F20" stroke-width="4" stroke-linecap="round" stroke-linejoin="round" stroke-miterlimit="10" x1="730.6" y1="196.6" x2="882.9" y2="196.6"/>
		<line fill="none" stroke="#231F20" stroke-width="4" stroke-linecap="round" stroke-linejoin="round" stroke-miterlimit="10" x1="730.6" y1="208.6" x2="798.9" y2="208.6"/>
		<line fill="none" stroke="#231F20" stroke-width="4" stroke-linecap="round" stroke-linejoin="round" stroke-miterlimit="10" x1="805" y1="208.6" x2="873.2" y2="208.6"/>
		<line fill="none" stroke="#231F20" stroke-width="4" stroke-linecap="round" stroke-linejoin="round" stroke-miterlimit="10" x1="730.6" y1="220.6" x2="882.9" y2="220.6"/>
		<line fill="none" stroke="#231F20" stroke-width="4" stroke-linecap="round" stroke-linejoin="round" stroke-miterlimit="10" x1="730.6" y1="232.6" x2="876.9" y2="232.6"/>
		<line fill="none" stroke="#231F20" stroke-width="4" stroke-linecap="round" stroke-linejoin="round" stroke-miterlimit="10" x1="730.6" y1="244.6" x2="888.9" y2="244.6"/>
		<line fill="none" stroke="#231F20" stroke-width="4" stroke-linecap="round" stroke-linejoin="round" stroke-miterlimit="10" x1="730.6" y1="262.6" x2="763.6" y2="262.6"/>
		<line fill="none" stroke="#231F20" stroke-width="4" stroke-linecap="round" stroke-linejoin="round" stroke-miterlimit="10" x1="769.9" y1="262.6" x2="803" y2="262.6"/>
		<line fill="none" stroke="#231F20" stroke-width="4" stroke-linecap="round" stroke-linejoin="round" stroke-miterlimit="10" x1="730.6" y1="274.6" x2="888.9" y2="274.6"/>
		<line fill="none" stroke="#231F20" stroke-width="4" stroke-linecap="round" stroke-linejoin="round" stroke-miterlimit="10" x1="730.6" y1="286.6" x2="876.9" y2="286.6"/>
		<line fill="none" stroke="#231F20" stroke-width="4" stroke-linecap="round" stroke-linejoin="round" stroke-miterlimit="10" x1="730.6" y1="298.6" x2="882.9" y2="298.6"/>
		<line fill="none" stroke="#231F20" stroke-width="4" stroke-linecap="round" stroke-linejoin="round" stroke-miterlimit="10" x1="742.6" y1="316.6" x2="784.7" y2="316.6"/>
		<line fill="none" stroke="#231F20" stroke-width="4" stroke-linecap="round" stroke-linejoin="round" stroke-miterlimit="10" x1="742.6" y1="328.6" x2="860.9" y2="328.6"/>
		<line fill="none" stroke="#231F20" stroke-width="4" stroke-linecap="round" stroke-linejoin="round" stroke-miterlimit="10" x1="742.6" y1="340.6" x2="846.5" y2="340.6"/>
		<line fill="none" stroke="#231F20" stroke-width="4" stroke-linecap="round" stroke-linejoin="round" stroke-miterlimit="10" x1="730.6" y1="361.6" x2="888.9" y2="361.6"/>
		<path fill="#F4F5F5" stroke="#231F20" stroke-width="4" stroke-miterlimit="10" d="M913,379.2c0,3.2-2.6,5.8-5.8,5.8h-195
			c-3.2,0-5.8-2.6-5.8-5.8V130.9c0-3.2,2.6-5.8,5.8-5.8h195c3.2,0,5.8,2.6,5.8,5.8V379.2z"/>
		<line fill="none" stroke="#231F20" stroke-width="4" stroke-linecap="round" stroke-linejoin="round" stroke-miterlimit="10" x1="730.6" y1="172.6" x2="762.4" y2="172.6"/>
		<line fill="none" stroke="#231F20" stroke-width="4" stroke-linecap="round" stroke-linejoin="round" stroke-miterlimit="10" x1="769.6" y1="172.6" x2="816.4" y2="172.6"/>
		<line fill="none" stroke="#231F20" stroke-width="4" stroke-linecap="round" stroke-linejoin="round" stroke-miterlimit="10" x1="823" y1="172.6" x2="882.4" y2="172.6"/>
		<line fill="none" stroke="#231F20" stroke-width="4" stroke-linecap="round" stroke-linejoin="round" stroke-miterlimit="10" x1="730.6" y1="184.6" x2="822.9" y2="184.6"/>
		<line fill="none" stroke="#231F20" stroke-width="4" stroke-linecap="round" stroke-linejoin="round" stroke-miterlimit="10" x1="829.6" y1="184.6" x2="890.9" y2="184.6"/>
		<line fill="none" stroke="#231F20" stroke-width="4" stroke-linecap="round" stroke-linejoin="round" stroke-miterlimit="10" x1="730.6" y1="196.6" x2="882.9" y2="196.6"/>
		<line fill="none" stroke="#231F20" stroke-width="4" stroke-linecap="round" stroke-linejoin="round" stroke-miterlimit="10" x1="730.6" y1="208.6" x2="798.9" y2="208.6"/>
		<line fill="none" stroke="#231F20" stroke-width="4" stroke-linecap="round" stroke-linejoin="round" stroke-miterlimit="10" x1="805" y1="208.6" x2="873.2" y2="208.6"/>
		<line fill="none" stroke="#231F20" stroke-width="4" stroke-linecap="round" stroke-linejoin="round" stroke-miterlimit="10" x1="730.6" y1="220.6" x2="882.9" y2="220.6"/>
		<line fill="none" stroke="#231F20" stroke-width="4" stroke-linecap="round" stroke-linejoin="round" stroke-miterlimit="10" x1="730.6" y1="232.6" x2="876.9" y2="232.6"/>
		<line fill="none" stroke="#231F20" stroke-width="4" stroke-linecap="round" stroke-linejoin="round" stroke-miterlimit="10" x1="730.6" y1="244.6" x2="888.9" y2="244.6"/>
		<line fill="none" stroke="#231F20" stroke-width="4" stroke-linecap="round" stroke-linejoin="round" stroke-miterlimit="10" x1="730.6" y1="262.6" x2="763.6" y2="262.6"/>
		<line fill="none" stroke="#231F20" stroke-width="4" stroke-linecap="round" stroke-linejoin="round" stroke-miterlimit="10" x1="769.9" y1="262.6" x2="803" y2="262.6"/>
		<line fill="none" stroke="#231F20" stroke-width="4" stroke-linecap="round" stroke-linejoin="round" stroke-miterlimit="10" x1="730.6" y1="274.6" x2="888.9" y2="274.6"/>
		<line fill="none" stroke="#231F20" stroke-width="4" stroke-linecap="round" stroke-linejoin="round" stroke-miterlimit="10" x1="730.6" y1="286.6" x2="876.9" y2="286.6"/>
		<line fill="none" stroke="#231F20" stroke-width="4" stroke-linecap="round" stroke-linejoin="round" stroke-miterlimit="10" x1="730.6" y1="298.6" x2="882.9" y2="298.6"/>
		<line fill="none" stroke="#231F20" stroke-width="4" stroke-linecap="round" stroke-linejoin="round" stroke-miterlimit="10" x1="742.6" y1="316.6" x2="784.7" y2="316.6"/>
		<line fill="none" stroke="#231F20" stroke-width="4" stroke-linecap="round" stroke-linejoin="round" stroke-miterlimit="10" x1="742.6" y1="328.6" x2="860.9" y2="328.6"/>
		<line fill="none" stroke="#231F20" stroke-width="4" stroke-linecap="round" stroke-linejoin="round" stroke-miterlimit="10" x1="742.6" y1="340.6" x2="846.5" y2="340.6"/>
		<line fill="none" stroke="#231F20" stroke-width="4" stroke-linecap="round" stroke-linejoin="round" stroke-miterlimit="10" x1="730.6" y1="361.6" x2="888.9" y2="361.6"/>
	</g>
	<g id="level3left">
		<path fill="#F4F5F5" stroke="#231F20" stroke-width="4" stroke-miterlimit="10" d="M293.5,380.1c0,3.2-2.6,5.8-5.8,5.8h-195
			c-3.2,0-5.8-2.6-5.8-5.8V131.8c0-3.2,2.6-5.8,5.8-5.8h195c3.2,0,5.8,2.6,5.8,5.8V380.1z"/>
		<line fill="none" stroke="#231F20" stroke-width="4" stroke-linecap="round" stroke-linejoin="round" stroke-miterlimit="10" x1="111.1" y1="173.5" x2="251.4" y2="173.5"/>
		<line fill="none" stroke="#231F20" stroke-width="4" stroke-linecap="round" stroke-linejoin="round" stroke-miterlimit="10" x1="111.1" y1="161.5" x2="263.4" y2="161.5"/>
		<line fill="none" stroke="#231F20" stroke-width="8" stroke-linecap="round" stroke-linejoin="round" stroke-miterlimit="10" x1="111.1" y1="196.3" x2="159" y2="196.3"/>
		<line fill="none" stroke="#231F20" stroke-width="4" stroke-linecap="round" stroke-linejoin="round" stroke-miterlimit="10" x1="111.1" y1="209.5" x2="201" y2="209.5"/>
		<line fill="none" stroke="#231F20" stroke-width="4" stroke-linecap="round" stroke-linejoin="round" stroke-miterlimit="10" x1="207.7" y1="209.5" x2="261" y2="209.5"/>
		<line fill="none" stroke="#231F20" stroke-width="4" stroke-linecap="round" stroke-linejoin="round" stroke-miterlimit="10" x1="111.1" y1="221.5" x2="159" y2="221.5"/>
		<line fill="none" stroke="#231F20" stroke-width="4" stroke-linecap="round" stroke-linejoin="round" stroke-miterlimit="10" x1="165.1" y1="221.5" x2="237" y2="221.5"/>
		<line fill="none" stroke="#231F20" stroke-width="4" stroke-linecap="round" stroke-linejoin="round" stroke-miterlimit="10" x1="111.1" y1="233.5" x2="181.2" y2="233.5"/>
		<line fill="none" stroke="#231F20" stroke-width="4" stroke-linecap="round" stroke-linejoin="round" stroke-miterlimit="10" x1="111.1" y1="263.5" x2="234.6" y2="263.5"/>
		<line fill="none" stroke="#231F20" stroke-width="8" stroke-linecap="round" stroke-linejoin="round" stroke-miterlimit="10" x1="111.1" y1="251.5" x2="234.6" y2="251.5"/>
		<line fill="none" stroke="#231F20" stroke-width="4" stroke-linecap="round" stroke-linejoin="round" stroke-miterlimit="10" x1="123.1" y1="275.5" x2="269.4" y2="275.5"/>
		<line fill="none" stroke="#231F20" stroke-width="4" stroke-linecap="round" stroke-linejoin="round" stroke-miterlimit="10" x1="123.1" y1="287.5" x2="257.4" y2="287.5"/>
		<line fill="none" stroke="#231F20" stroke-width="4" stroke-linecap="round" stroke-linejoin="round" stroke-miterlimit="10" x1="123.1" y1="299.5" x2="263.4" y2="299.5"/>
		<line fill="none" stroke="#231F20" stroke-width="8" stroke-linecap="round" stroke-linejoin="round" stroke-miterlimit="10" x1="111.1" y1="317.5" x2="165.1" y2="317.5"/>
		<line fill="none" stroke="#231F20" stroke-width="4" stroke-linecap="round" stroke-linejoin="round" stroke-miterlimit="10" x1="111.1" y1="329.5" x2="241.3" y2="329.5"/>
		<line fill="none" stroke="#231F20" stroke-width="4" stroke-linecap="round" stroke-linejoin="round" stroke-miterlimit="10" x1="123.1" y1="341.5" x2="226.9" y2="341.5"/>
		<line fill="none" stroke="#231F20" stroke-width="4" stroke-linecap="round" stroke-linejoin="round" stroke-miterlimit="10" x1="111.1" y1="362.5" x2="269.4" y2="362.5"/>
		<line fill="none" stroke="#231F20" stroke-width="8" stroke-linecap="round" stroke-linejoin="round" stroke-miterlimit="10" x1="166.9" y1="196.3" x2="223.3" y2="196.3"/>
		<path fill="#F4F5F5" stroke="#231F20" stroke-width="4" stroke-miterlimit="10" d="M293.5,380.1c0,3.2-2.6,5.8-5.8,5.8h-195
			c-3.2,0-5.8-2.6-5.8-5.8V131.8c0-3.2,2.6-5.8,5.8-5.8h195c3.2,0,5.8,2.6,5.8,5.8V380.1z"/>
		<line fill="none" stroke="#231F20" stroke-width="4" stroke-linecap="round" stroke-linejoin="round" stroke-miterlimit="10" x1="111.1" y1="173.5" x2="251.4" y2="173.5"/>
		<line fill="none" stroke="#231F20" stroke-width="4" stroke-linecap="round" stroke-linejoin="round" stroke-miterlimit="10" x1="111.1" y1="161.5" x2="263.4" y2="161.5"/>
		<line fill="none" stroke="#231F20" stroke-width="4" stroke-linecap="round" stroke-linejoin="round" stroke-miterlimit="10" x1="111.1" y1="209.5" x2="201" y2="209.5"/>
		<line fill="none" stroke="#231F20" stroke-width="4" stroke-linecap="round" stroke-linejoin="round" stroke-miterlimit="10" x1="207.7" y1="209.5" x2="261" y2="209.5"/>
		<line fill="none" stroke="#231F20" stroke-width="4" stroke-linecap="round" stroke-linejoin="round" stroke-miterlimit="10" x1="111.1" y1="221.5" x2="159" y2="221.5"/>
		<line fill="none" stroke="#231F20" stroke-width="4" stroke-linecap="round" stroke-linejoin="round" stroke-miterlimit="10" x1="165.1" y1="221.5" x2="237" y2="221.5"/>
		<line fill="none" stroke="#231F20" stroke-width="4" stroke-linecap="round" stroke-linejoin="round" stroke-miterlimit="10" x1="111.1" y1="233.5" x2="181.2" y2="233.5"/>
		<line fill="none" stroke="#231F20" stroke-width="4" stroke-linecap="round" stroke-linejoin="round" stroke-miterlimit="10" x1="111.1" y1="263.5" x2="234.6" y2="263.5"/>
		<line fill="none" stroke="#231F20" stroke-width="4" stroke-linecap="round" stroke-linejoin="round" stroke-miterlimit="10" x1="123.1" y1="275.5" x2="269.4" y2="275.5"/>
		<line fill="none" stroke="#231F20" stroke-width="4" stroke-linecap="round" stroke-linejoin="round" stroke-miterlimit="10" x1="123.1" y1="287.5" x2="257.4" y2="287.5"/>
		<line fill="none" stroke="#231F20" stroke-width="4" stroke-linecap="round" stroke-linejoin="round" stroke-miterlimit="10" x1="123.1" y1="299.5" x2="263.4" y2="299.5"/>
		<line fill="none" stroke="#231F20" stroke-width="4" stroke-linecap="round" stroke-linejoin="round" stroke-miterlimit="10" x1="111.1" y1="329.5" x2="241.3" y2="329.5"/>
		<line fill="none" stroke="#231F20" stroke-width="4" stroke-linecap="round" stroke-linejoin="round" stroke-miterlimit="10" x1="123.1" y1="341.5" x2="226.9" y2="341.5"/>
		<line fill="none" stroke="#231F20" stroke-width="4" stroke-linecap="round" stroke-linejoin="round" stroke-miterlimit="10" x1="111.1" y1="362.5" x2="269.4" y2="362.5"/>
	</g>
	<g id="level2right">
		<path fill="#F4F5F5" stroke="#231F20" stroke-width="4" stroke-miterlimit="10" d="M809.8,421.5c0,4.2-3.4,7.7-7.7,7.7H542
			c-4.2,0-7.7-3.4-7.7-7.7V90.4c0-4.2,3.4-7.7,7.7-7.7h260.1c4.2,0,7.7,3.4,7.7,7.7V421.5z"/>
		<line fill="none" stroke="#231F20" stroke-width="4" stroke-linecap="round" stroke-linejoin="round" stroke-miterlimit="10" x1="566.5" y1="146" x2="753.6" y2="146"/>
		<line fill="none" stroke="#231F20" stroke-width="4" stroke-linecap="round" stroke-linejoin="round" stroke-miterlimit="10" x1="566.5" y1="130" x2="769.6" y2="130"/>
		<line fill="none" stroke="#231F20" stroke-width="8" stroke-linecap="round" stroke-linejoin="round" stroke-miterlimit="10" x1="566.5" y1="176.4" x2="630.4" y2="176.4"/>
		<line fill="none" stroke="#231F20" stroke-width="4" stroke-linecap="round" stroke-linejoin="round" stroke-miterlimit="10" x1="566.5" y1="194" x2="686.5" y2="194"/>
		<line fill="none" stroke="#231F20" stroke-width="4" stroke-linecap="round" stroke-linejoin="round" stroke-miterlimit="10" x1="695.3" y1="194" x2="766.5" y2="194"/>
		<line fill="none" stroke="#231F20" stroke-width="4" stroke-linecap="round" stroke-linejoin="round" stroke-miterlimit="10" x1="566.5" y1="210" x2="630.4" y2="210"/>
		<line fill="none" stroke="#231F20" stroke-width="4" stroke-linecap="round" stroke-linejoin="round" stroke-miterlimit="10" x1="638.5" y1="210" x2="734.4" y2="210"/>
		<line fill="none" stroke="#231F20" stroke-width="4" stroke-linecap="round" stroke-linejoin="round" stroke-miterlimit="10" x1="566.5" y1="226" x2="660.1" y2="226"/>
		<line fill="none" stroke="#231F20" stroke-width="4" stroke-linecap="round" stroke-linejoin="round" stroke-miterlimit="10" x1="566.5" y1="266" x2="731.2" y2="266"/>
		<line fill="none" stroke="#231F20" stroke-width="8" stroke-linecap="round" stroke-linejoin="round" stroke-miterlimit="10" x1="566.5" y1="250" x2="731.2" y2="250"/>
		<line fill="none" stroke="#231F20" stroke-width="4" stroke-linecap="round" stroke-linejoin="round" stroke-miterlimit="10" x1="582.5" y1="282" x2="777.6" y2="282"/>
		<line fill="none" stroke="#231F20" stroke-width="4" stroke-linecap="round" stroke-linejoin="round" stroke-miterlimit="10" x1="582.5" y1="298" x2="761.6" y2="298"/>
		<line fill="none" stroke="#231F20" stroke-width="4" stroke-linecap="round" stroke-linejoin="round" stroke-miterlimit="10" x1="582.5" y1="314" x2="769.6" y2="314"/>
		<line fill="none" stroke="#231F20" stroke-width="8" stroke-linecap="round" stroke-linejoin="round" stroke-miterlimit="10" x1="566.5" y1="338" x2="638.6" y2="338"/>
		<line fill="none" stroke="#231F20" stroke-width="4" stroke-linecap="round" stroke-linejoin="round" stroke-miterlimit="10" x1="566.5" y1="354" x2="740.2" y2="354"/>
		<line fill="none" stroke="#231F20" stroke-width="4" stroke-linecap="round" stroke-linejoin="round" stroke-miterlimit="10" x1="582.5" y1="370" x2="721" y2="370"/>
		<line fill="none" stroke="#231F20" stroke-width="4" stroke-linecap="round" stroke-linejoin="round" stroke-miterlimit="10" x1="566.5" y1="398" x2="777.6" y2="398"/>
		<line fill="none" stroke="#231F20" stroke-width="8" stroke-linecap="round" stroke-linejoin="round" stroke-miterlimit="10" x1="641" y1="176.4" x2="716.2" y2="176.4"/>
		<path fill="#F4F5F5" stroke="#231F20" stroke-width="4" stroke-miterlimit="10" d="M809.8,421.5c0,4.2-3.4,7.7-7.7,7.7H542
			c-4.2,0-7.7-3.4-7.7-7.7V90.4c0-4.2,3.4-7.7,7.7-7.7h260.1c4.2,0,7.7,3.4,7.7,7.7V421.5z"/>
		<line fill="none" stroke="#231F20" stroke-width="4" stroke-linecap="round" stroke-linejoin="round" stroke-miterlimit="10" x1="566.5" y1="146" x2="753.6" y2="146"/>
		<line fill="none" stroke="#231F20" stroke-width="4" stroke-linecap="round" stroke-linejoin="round" stroke-miterlimit="10" x1="566.5" y1="130" x2="769.6" y2="130"/>
		<line fill="none" stroke="#231F20" stroke-width="8" stroke-linecap="round" stroke-linejoin="round" stroke-miterlimit="10" x1="566.5" y1="176.4" x2="630.4" y2="176.4"/>
		<line fill="none" stroke="#231F20" stroke-width="4" stroke-linecap="round" stroke-linejoin="round" stroke-miterlimit="10" x1="566.5" y1="194" x2="686.5" y2="194"/>
		<line fill="none" stroke="#231F20" stroke-width="4" stroke-linecap="round" stroke-linejoin="round" stroke-miterlimit="10" x1="695.3" y1="194" x2="766.5" y2="194"/>
		<line fill="none" stroke="#231F20" stroke-width="4" stroke-linecap="round" stroke-linejoin="round" stroke-miterlimit="10" x1="566.5" y1="210" x2="630.4" y2="210"/>
		<line fill="none" stroke="#231F20" stroke-width="4" stroke-linecap="round" stroke-linejoin="round" stroke-miterlimit="10" x1="638.5" y1="210" x2="734.4" y2="210"/>
		<line fill="none" stroke="#231F20" stroke-width="4" stroke-linecap="round" stroke-linejoin="round" stroke-miterlimit="10" x1="566.5" y1="226" x2="660.1" y2="226"/>
		<line fill="none" stroke="#231F20" stroke-width="4" stroke-linecap="round" stroke-linejoin="round" stroke-miterlimit="10" x1="566.5" y1="266" x2="731.2" y2="266"/>
		<line fill="none" stroke="#231F20" stroke-width="8" stroke-linecap="round" stroke-linejoin="round" stroke-miterlimit="10" x1="566.5" y1="250" x2="731.2" y2="250"/>
		<line fill="none" stroke="#231F20" stroke-width="4" stroke-linecap="round" stroke-linejoin="round" stroke-miterlimit="10" x1="582.5" y1="282" x2="777.6" y2="282"/>
		<line fill="none" stroke="#231F20" stroke-width="4" stroke-linecap="round" stroke-linejoin="round" stroke-miterlimit="10" x1="582.5" y1="298" x2="761.6" y2="298"/>
		<line fill="none" stroke="#231F20" stroke-width="4" stroke-linecap="round" stroke-linejoin="round" stroke-miterlimit="10" x1="582.5" y1="314" x2="769.6" y2="314"/>
		<line fill="none" stroke="#231F20" stroke-width="8" stroke-linecap="round" stroke-linejoin="round" stroke-miterlimit="10" x1="566.5" y1="338" x2="638.6" y2="338"/>
		<line fill="none" stroke="#231F20" stroke-width="4" stroke-linecap="round" stroke-linejoin="round" stroke-miterlimit="10" x1="566.5" y1="354" x2="740.2" y2="354"/>
		<line fill="none" stroke="#231F20" stroke-width="4" stroke-linecap="round" stroke-linejoin="round" stroke-miterlimit="10" x1="582.5" y1="370" x2="721" y2="370"/>
		<line fill="none" stroke="#231F20" stroke-width="4" stroke-linecap="round" stroke-linejoin="round" stroke-miterlimit="10" x1="566.5" y1="398" x2="777.6" y2="398"/>
		<line fill="none" stroke="#231F20" stroke-width="8" stroke-linecap="round" stroke-linejoin="round" stroke-miterlimit="10" x1="641" y1="176.4" x2="716.2" y2="176.4"/>
	</g>
	<g id="level2left">
		<path fill="#F4F5F5" stroke="#231F20" stroke-width="4" stroke-miterlimit="10" d="M465.6,421.5c0,4.2-3.4,7.7-7.7,7.7H197.9
			c-4.2,0-7.7-3.4-7.7-7.7V90.4c0-4.2,3.4-7.7,7.7-7.7H458c4.2,0,7.7,3.4,7.7,7.7V421.5z"/>
		<line fill="none" stroke="#231F20" stroke-width="8" stroke-linecap="round" stroke-linejoin="round" stroke-miterlimit="10" x1="254.4" y1="128.4" x2="343.9" y2="128.4"/>
		<line fill="none" stroke="#231F20" stroke-width="8" stroke-linecap="round" stroke-linejoin="round" stroke-miterlimit="10" x1="222.4" y1="128.4" x2="241.6" y2="128.4"/>
		<line fill="none" stroke="#231F20" stroke-width="4" stroke-linecap="round" stroke-linejoin="round" stroke-miterlimit="10" x1="222.4" y1="146" x2="264.8" y2="146"/>
		<line fill="none" stroke="#231F20" stroke-width="4" stroke-linecap="round" stroke-linejoin="round" stroke-miterlimit="10" x1="274.4" y1="146" x2="336.8" y2="146"/>
		<line fill="none" stroke="#231F20" stroke-width="4" stroke-linecap="round" stroke-linejoin="round" stroke-miterlimit="10" x1="345.6" y1="146" x2="424.8" y2="146"/>
		<line fill="none" stroke="#231F20" stroke-width="4" stroke-linecap="round" stroke-linejoin="round" stroke-miterlimit="10" x1="222.4" y1="162" x2="345.5" y2="162"/>
		<line fill="none" stroke="#231F20" stroke-width="4" stroke-linecap="round" stroke-linejoin="round" stroke-miterlimit="10" x1="354.4" y1="162" x2="436" y2="162"/>
		<line fill="none" stroke="#231F20" stroke-width="4" stroke-linecap="round" stroke-linejoin="round" stroke-miterlimit="10" x1="222.4" y1="178" x2="425.5" y2="178"/>
		<line fill="none" stroke="#231F20" stroke-width="4" stroke-linecap="round" stroke-linejoin="round" stroke-miterlimit="10" x1="222.4" y1="194" x2="313.4" y2="194"/>
		<line fill="none" stroke="#231F20" stroke-width="4" stroke-linecap="round" stroke-linejoin="round" stroke-miterlimit="10" x1="321.5" y1="194" x2="412.5" y2="194"/>
		<line fill="none" stroke="#231F20" stroke-width="4" stroke-linecap="round" stroke-linejoin="round" stroke-miterlimit="10" x1="222.4" y1="210" x2="425.5" y2="210"/>
		<line fill="none" stroke="#231F20" stroke-width="4" stroke-linecap="round" stroke-linejoin="round" stroke-miterlimit="10" x1="222.4" y1="226" x2="417.5" y2="226"/>
		<line fill="none" stroke="#231F20" stroke-width="4" stroke-linecap="round" stroke-linejoin="round" stroke-miterlimit="10" x1="222.4" y1="242" x2="433.5" y2="242"/>
		<line fill="none" stroke="#231F20" stroke-width="4" stroke-linecap="round" stroke-linejoin="round" stroke-miterlimit="10" x1="222.4" y1="266" x2="266.4" y2="266"/>
		<line fill="none" stroke="#231F20" stroke-width="4" stroke-linecap="round" stroke-linejoin="round" stroke-miterlimit="10" x1="274.8" y1="266" x2="318.8" y2="266"/>
		<line fill="none" stroke="#231F20" stroke-width="4" stroke-linecap="round" stroke-linejoin="round" stroke-miterlimit="10" x1="222.4" y1="282" x2="433.5" y2="282"/>
		<line fill="none" stroke="#231F20" stroke-width="4" stroke-linecap="round" stroke-linejoin="round" stroke-miterlimit="10" x1="222.4" y1="298" x2="417.5" y2="298"/>
		<line fill="none" stroke="#231F20" stroke-width="4" stroke-linecap="round" stroke-linejoin="round" stroke-miterlimit="10" x1="222.4" y1="314" x2="425.5" y2="314"/>
		<line fill="none" stroke="#231F20" stroke-width="4" stroke-linecap="round" stroke-linejoin="round" stroke-miterlimit="10" x1="238.4" y1="338" x2="294.4" y2="338"/>
		<line fill="none" stroke="#231F20" stroke-width="4" stroke-linecap="round" stroke-linejoin="round" stroke-miterlimit="10" x1="238.4" y1="354" x2="396" y2="354"/>
		<line fill="none" stroke="#231F20" stroke-width="4" stroke-linecap="round" stroke-linejoin="round" stroke-miterlimit="10" x1="238.4" y1="370" x2="376.8" y2="370"/>
		<line fill="none" stroke="#231F20" stroke-width="4" stroke-linecap="round" stroke-linejoin="round" stroke-miterlimit="10" x1="222.4" y1="398" x2="433.5" y2="398"/>
		<path fill="#F4F5F5" stroke="#231F20" stroke-width="4" stroke-miterlimit="10" d="M465.6,421.5c0,4.2-3.4,7.7-7.7,7.7H197.9
			c-4.2,0-7.7-3.4-7.7-7.7V90.4c0-4.2,3.4-7.7,7.7-7.7H458c4.2,0,7.7,3.4,7.7,7.7V421.5z"/>
		<line fill="none" stroke="#231F20" stroke-width="8" stroke-linecap="round" stroke-linejoin="round" stroke-miterlimit="10" x1="254.4" y1="128.4" x2="343.9" y2="128.4"/>
		<line fill="none" stroke="#231F20" stroke-width="8" stroke-linecap="round" stroke-linejoin="round" stroke-miterlimit="10" x1="222.4" y1="128.4" x2="241.6" y2="128.4"/>
		<line fill="none" stroke="#231F20" stroke-width="4" stroke-linecap="round" stroke-linejoin="round" stroke-miterlimit="10" x1="222.4" y1="146" x2="264.8" y2="146"/>
		<line fill="none" stroke="#231F20" stroke-width="4" stroke-linecap="round" stroke-linejoin="round" stroke-miterlimit="10" x1="274.4" y1="146" x2="336.8" y2="146"/>
		<line fill="none" stroke="#231F20" stroke-width="4" stroke-linecap="round" stroke-linejoin="round" stroke-miterlimit="10" x1="345.6" y1="146" x2="424.8" y2="146"/>
		<line fill="none" stroke="#231F20" stroke-width="4" stroke-linecap="round" stroke-linejoin="round" stroke-miterlimit="10" x1="222.4" y1="162" x2="345.5" y2="162"/>
		<line fill="none" stroke="#231F20" stroke-width="4" stroke-linecap="round" stroke-linejoin="round" stroke-miterlimit="10" x1="354.4" y1="162" x2="436" y2="162"/>
		<line fill="none" stroke="#231F20" stroke-width="4" stroke-linecap="round" stroke-linejoin="round" stroke-miterlimit="10" x1="222.4" y1="178" x2="425.5" y2="178"/>
		<line fill="none" stroke="#231F20" stroke-width="4" stroke-linecap="round" stroke-linejoin="round" stroke-miterlimit="10" x1="222.4" y1="194" x2="313.4" y2="194"/>
		<line fill="none" stroke="#231F20" stroke-width="4" stroke-linecap="round" stroke-linejoin="round" stroke-miterlimit="10" x1="321.5" y1="194" x2="412.5" y2="194"/>
		<line fill="none" stroke="#231F20" stroke-width="4" stroke-linecap="round" stroke-linejoin="round" stroke-miterlimit="10" x1="222.4" y1="210" x2="425.5" y2="210"/>
		<line fill="none" stroke="#231F20" stroke-width="4" stroke-linecap="round" stroke-linejoin="round" stroke-miterlimit="10" x1="222.4" y1="226" x2="417.5" y2="226"/>
		<line fill="none" stroke="#231F20" stroke-width="4" stroke-linecap="round" stroke-linejoin="round" stroke-miterlimit="10" x1="222.4" y1="242" x2="433.5" y2="242"/>
		<line fill="none" stroke="#231F20" stroke-width="4" stroke-linecap="round" stroke-linejoin="round" stroke-miterlimit="10" x1="222.4" y1="266" x2="266.4" y2="266"/>
		<line fill="none" stroke="#231F20" stroke-width="4" stroke-linecap="round" stroke-linejoin="round" stroke-miterlimit="10" x1="274.8" y1="266" x2="318.8" y2="266"/>
		<line fill="none" stroke="#231F20" stroke-width="4" stroke-linecap="round" stroke-linejoin="round" stroke-miterlimit="10" x1="222.4" y1="282" x2="433.5" y2="282"/>
		<line fill="none" stroke="#231F20" stroke-width="4" stroke-linecap="round" stroke-linejoin="round" stroke-miterlimit="10" x1="222.4" y1="298" x2="417.5" y2="298"/>
		<line fill="none" stroke="#231F20" stroke-width="4" stroke-linecap="round" stroke-linejoin="round" stroke-miterlimit="10" x1="222.4" y1="314" x2="425.5" y2="314"/>
		<line fill="none" stroke="#231F20" stroke-width="4" stroke-linecap="round" stroke-linejoin="round" stroke-miterlimit="10" x1="238.4" y1="338" x2="294.4" y2="338"/>
		<line fill="none" stroke="#231F20" stroke-width="4" stroke-linecap="round" stroke-linejoin="round" stroke-miterlimit="10" x1="238.4" y1="354" x2="396" y2="354"/>
		<line fill="none" stroke="#231F20" stroke-width="4" stroke-linecap="round" stroke-linejoin="round" stroke-miterlimit="10" x1="238.4" y1="370" x2="376.8" y2="370"/>
		<line fill="none" stroke="#231F20" stroke-width="4" stroke-linecap="round" stroke-linejoin="round" stroke-miterlimit="10" x1="222.4" y1="398" x2="433.5" y2="398"/>
	</g>
	<g id="glass">
		
			<path fill="#F5CB5C" stroke="#231F20" stroke-width="4" stroke-linecap="round" stroke-linejoin="round" stroke-miterlimit="10" d="
			M67.3,227.2c-4.6,2.3-10.3,0.4-12.5-4.2l-0.1-0.2c-2.3-4.6-0.4-10.3,4.2-12.5l82.7-40.9c4.6-2.3,10.3-0.4,12.5,4.2l0.1,0.2
			c2.3,4.6,0.4,10.3-4.2,12.5L67.3,227.2z"/>
		
			<path fill="#F5CB5C" stroke="#231F20" stroke-width="4" stroke-linecap="round" stroke-linejoin="round" stroke-miterlimit="10" d="
			M294.5,157c12.8-38-7.6-79.2-45.5-92s-79.2,7.6-92,45.5c-12.8,38,7.6,79.2,45.5,92C240.4,215.4,281.6,195,294.5,157z"/>
		<circle fill="#F4F5F5" stroke="#231F20" stroke-width="4" stroke-miterlimit="10" cx="225.7" cy="133.8" r="54.1"/>
		<line fill="none" stroke="#231F20" stroke-width="12" stroke-linecap="round" stroke-linejoin="round" stroke-miterlimit="10" x1="210" y1="127" x2="275" y2="127"/>
		<line fill="none" stroke="#231F20" stroke-width="6" stroke-linecap="round" stroke-linejoin="round" stroke-miterlimit="10" x1="210" y1="157" x2="272" y2="157"/>
	</g>
	<g id="error">
		
			<circle fill="#F05A28" stroke="#231F20" stroke-width="4" stroke-linecap="round" stroke-linejoin="round" stroke-miterlimit="10" cx="803.3" cy="316.7" r="69"/>
		<line fill="none" stroke="#231F20" stroke-width="12" stroke-linecap="round" stroke-linejoin="round" stroke-miterlimit="10" x1="775" y1="345.1" x2="831.7" y2="288.4"/>
		<line fill="none" stroke="#231F20" stroke-width="12" stroke-linecap="round" stroke-linejoin="round" stroke-miterlimit="10" x1="775" y1="288.4" x2="831.7" y2="345.1"/>
	</g>
	<g id="simple">
		<path fill="#F4F5F5" stroke="#231F20" stroke-width="4" stroke-miterlimit="10" d="M672.2,456.9c0,5.3-4.3,9.6-9.6,9.6H337.5
			c-5.3,0-9.6-4.3-9.6-9.6V43.1c0-5.3,4.3-9.6,9.6-9.6h325.1c5.3,0,9.6,4.3,9.6,9.6V456.9z"/>
		
		<circle fill="#22BBB9" stroke="#231F20" stroke-width="4" stroke-linecap="round" stroke-linejoin="round" stroke-miterlimit="10" cx="391.2" cy="154.9" r="23.1"/>
		<line fill="none" stroke="#231F20" stroke-width="4" stroke-linecap="round" stroke-linejoin="round" stroke-miterlimit="10" x1="435.5" y1="147.8" x2="620.4" y2="147.8"/>
		<line fill="none" stroke="#231F20" stroke-width="4" stroke-linecap="round" stroke-linejoin="round" stroke-miterlimit="10" x1="435.5" y1="163.2" x2="558.8" y2="163.2"/>
		<circle fill="#22BBB9" stroke="#231F20" stroke-width="4" stroke-linecap="round" stroke-linejoin="round" stroke-miterlimit="10" cx="391.2" cy="232" r="23.1"/>
		<line fill="none" stroke="#231F20" stroke-width="4" stroke-linecap="round" stroke-linejoin="round" stroke-miterlimit="10" x1="435.5" y1="224.9" x2="512.6" y2="224.9"/>
		<line fill="none" stroke="#231F20" stroke-width="4" stroke-linecap="round" stroke-linejoin="round" stroke-miterlimit="10" x1="435.5" y1="240.3" x2="583.4" y2="240.3"/>
		<circle fill="#F5CB5C" stroke="#231F20" stroke-width="4" stroke-linecap="round" stroke-linejoin="round" stroke-miterlimit="10" cx="391.2" cy="309" r="23.1"/>
		<line fill="none" stroke="#231F20" stroke-width="4" stroke-linecap="round" stroke-linejoin="round" stroke-miterlimit="10" x1="435.5" y1="301.9" x2="558.8" y2="301.9"/>
		<line fill="none" stroke="#231F20" stroke-width="4" stroke-linecap="round" stroke-linejoin="round" stroke-miterlimit="10" x1="435.5" y1="317.3" x2="528" y2="317.3"/>
		<line fill="none" stroke="#231F20" stroke-width="4" stroke-linecap="round" stroke-linejoin="round" stroke-miterlimit="10" x1="509.5" y1="425.6" x2="632" y2="425.6"/>
		<line fill="none" stroke="#231F20" stroke-width="4" stroke-linecap="round" stroke-linejoin="round" stroke-miterlimit="10" x1="368.1" y1="92.6" x2="632" y2="92.6"/>
		<path fill="none" stroke="#231F20" stroke-width="4" stroke-linecap="round" stroke-linejoin="round" stroke-miterlimit="10" d="
			M516.8,418c36.9-5.4,59.4-40.6,38.5-38.6c-24.1,2.3-13.1,52.4,28.1,29.4c37.2-20.8,37-7,37,2.3"/>
		<path fill="#F4F5F5" stroke="#231F20" stroke-width="4" stroke-miterlimit="10" d="M672.2,456.9c0,5.3-4.3,9.6-9.6,9.6H337.5
			c-5.3,0-9.6-4.3-9.6-9.6V43.1c0-5.3,4.3-9.6,9.6-9.6h325.1c5.3,0,9.6,4.3,9.6,9.6V456.9z"/>
			<circle id="item1" fill="#22BBB9" stroke="#231F20" stroke-width="4" stroke-linecap="round" stroke-linejoin="round" stroke-miterlimit="10" cx="391.2" cy="154.9" r="23.1"/>
			<line fill="none" stroke="#231F20" stroke-width="4" stroke-linecap="round" stroke-linejoin="round" stroke-miterlimit="10" x1="435.5" y1="147.8" x2="620.4" y2="147.8"/>
			<line fill="none" stroke="#231F20" stroke-width="4" stroke-linecap="round" stroke-linejoin="round" stroke-miterlimit="10" x1="435.5" y1="163.2" x2="558.8" y2="163.2"/>
			<circle id="item2" fill="#22BBB9" stroke="#231F20" stroke-width="4" stroke-linecap="round" stroke-linejoin="round" stroke-miterlimit="10" cx="391.2" cy="232" r="23.1"/>		
			<line fill="none" stroke="#231F20" stroke-width="4" stroke-linecap="round" stroke-linejoin="round" stroke-miterlimit="10" x1="435.5" y1="224.9" x2="512.6" y2="224.9"/>		
			<line fill="none" stroke="#231F20" stroke-width="4" stroke-linecap="round" stroke-linejoin="round" stroke-miterlimit="10" x1="435.5" y1="240.3" x2="583.4" y2="240.3"/>		
			<circle id="item3" fill="#F5CB5C" stroke="#231F20" stroke-width="4" stroke-linecap="round" stroke-linejoin="round" stroke-miterlimit="10" cx="391.2" cy="309" r="23.1"/>		
			<line fill="none" stroke="#231F20" stroke-width="4" stroke-linecap="round" stroke-linejoin="round" stroke-miterlimit="10" x1="435.5" y1="301.9" x2="558.8" y2="301.9"/>		
			<line fill="none" stroke="#231F20" stroke-width="4" stroke-linecap="round" stroke-linejoin="round" stroke-miterlimit="10" x1="435.5" y1="317.3" x2="528" y2="317.3"/>		
			<line fill="none" stroke="#231F20" stroke-width="4" stroke-linecap="round" stroke-linejoin="round" stroke-miterlimit="10" x1="509.5" y1="425.6" x2="632" y2="425.6"/>		
			<line fill="none" stroke="#231F20" stroke-width="4" stroke-linecap="round" stroke-linejoin="round" stroke-miterlimit="10" x1="368.1" y1="92.6" x2="632" y2="92.6"/>		
			<path id="sign" fill="none" stroke="#231F20" stroke-width="4" stroke-linecap="round" stroke-linejoin="round" stroke-miterlimit="10" d="
			M516.8,418c36.9-5.4,59.4-40.6,38.5-38.6c-24.1,2.3-14.3,50,28.1,29.4c23.6-11.5,37-7,42.1,2.7"/>
	</g>
</svg>
