<?xml version="1.0" encoding="utf-8"?>
<!-- Generator: Adobe Illustrator 16.0.4, SVG Export Plug-In . SVG Version: 6.00 Build 0)  -->
<!DOCTYPE svg PUBLIC "-//W3C//DTD SVG 1.1//EN" "http://www.w3.org/Graphics/SVG/1.1/DTD/svg11.dtd">
<svg version="1.1" id="Layer_1" xmlns="http://www.w3.org/2000/svg" xmlns:xlink="http://www.w3.org/1999/xlink" x="0px" y="0px"
	 width="40px" height="40px" viewBox="0 0 40 40" enable-background="new 0 0 40 40" xml:space="preserve">
<g>
	<path fill="none" stroke="#22BBB9" stroke-width="2" stroke-miterlimit="10" d="M37.9,20.3c0,9.9-8.1,18-18,18c-9.9,0-18-8.1-18-18
		c0-9.9,8.1-18,18-18C29.9,2.3,37.9,10.4,37.9,20.3z"/>
</g>
<path fill="none" stroke="#22BBB9" stroke-width="2" stroke-miterlimit="10" d="M27.1,23.1c0,3.9-7.1,7.1-7.1,7.1S13,27,13,23.1
	v-9.6c0,0,3.6-0.6,7.1-3.1c4.1,2.6,7.1,3.1,7.1,3.1V23.1z"/>
<g>
	<g>
		<polygon fill="#22BBB9" points="4.9,34.3 31.9,3.7 34.9,6.3 7.9,37 		"/>
		<path fill="#FFFFFF" d="M32,5.1l1.5,1.3L7.8,35.5l-1.5-1.3L32,5.1 M31.8,2.3l-1.3,1.5L4.8,32.9l-1.3,1.5L5,35.7L6.5,37L8,38.4
			l1.3-1.5L35,7.8l1.3-1.5l-1.5-1.3l-1.5-1.3L31.8,2.3L31.8,2.3z"/>
	</g>
</g>
</svg>
