<?xml version="1.0" encoding="utf-8"?>
<!-- Generator: Adobe Illustrator 16.0.4, SVG Export Plug-In . SVG Version: 6.00 Build 0)  -->
<!DOCTYPE svg PUBLIC "-//W3C//DTD SVG 1.1//EN" "http://www.w3.org/Graphics/SVG/1.1/DTD/svg11.dtd">
<svg version="1.1" id="Layer_1" xmlns="http://www.w3.org/2000/svg" xmlns:xlink="http://www.w3.org/1999/xlink" x="0px" y="0px"
	 width="40px" height="40px" viewBox="0 0 40 40" enable-background="new 0 0 40 40" xml:space="preserve">
<g>
	<path fill="none" stroke="#F05A28" stroke-width="2" stroke-miterlimit="10" d="M38.1,20c0,9.9-8.1,18-18,18c-9.9,0-18-8.1-18-18
		c0-9.9,8.1-18,18-18C30,2,38.1,10.1,38.1,20z"/>
</g>
<path fill="none" stroke="#F05A28" stroke-width="2" stroke-miterlimit="10" d="M27.3,22.8c0,3.9-7.1,7.1-7.1,7.1s-7.1-3.2-7.1-7.1
	v-9.6c0,0,3.6-0.6,7.1-3.1c4.1,2.6,7.1,3.1,7.1,3.1V22.8z"/>
<polygon fill="#F05A28" points="20.1,15.3 21.3,17.7 24,18.1 22,20 22.5,22.7 20.1,21.5 17.6,22.7 18.1,20 16.1,18.1 18.8,17.7 "/>
</svg>
