<?xml version="1.0" encoding="utf-8"?>
<!-- Generator: Adobe Illustrator 16.0.4, SVG Export Plug-In . SVG Version: 6.00 Build 0)  -->
<!DOCTYPE svg PUBLIC "-//W3C//DTD SVG 1.1//EN" "http://www.w3.org/Graphics/SVG/1.1/DTD/svg11.dtd">
<svg version="1.1" id="Layer_1" xmlns="http://www.w3.org/2000/svg" xmlns:xlink="http://www.w3.org/1999/xlink" x="0px" y="0px"
	 width="40px" height="40px" viewBox="0 0 40 40" enable-background="new 0 0 40 40" xml:space="preserve">
<g>
	<path fill="none" stroke="#22BBB9" stroke-width="2" stroke-miterlimit="10" d="M38,20c0,9.9-8.1,18-18,18c-9.9,0-18-8.1-18-18
		c0-9.9,8.1-18,18-18C29.9,2,38,10.1,38,20z"/>
</g>
<g>
	<rect x="10.5" y="11.8" fill="none" stroke="#22BBB9" stroke-width="2" stroke-miterlimit="10" width="19" height="12.9"/>
	<line fill="none" stroke="#22BBB9" stroke-width="2" stroke-miterlimit="10" x1="14" y1="24.6" x2="12.5" y2="28.6"/>
	<line fill="none" stroke="#22BBB9" stroke-width="2" stroke-miterlimit="10" x1="25.9" y1="24.6" x2="27.4" y2="28.6"/>
</g>
<g>
	<g>
		<path fill="#22BBB9" d="M24.9,16.4v3.8H15v-3.8H24.9 M26.9,14.4H13v7.8h13.9V14.4L26.9,14.4z"/>
	</g>
</g>
<g>
	<g>
		<polygon fill="#22BBB9" points="4.5,33.7 31.5,3.1 34.6,5.7 7.6,36.3 		"/>
		<path fill="#FFFFFF" d="M31.6,4.5l1.5,1.3L7.5,34.9L6,33.6L31.6,4.5 M31.5,1.6l-1.3,1.5L4.5,32.2l-1.3,1.5l1.5,1.3l1.5,1.3
			l1.5,1.3L9,36.2L34.6,7.1L36,5.6l-1.5-1.3L33,3L31.5,1.6L31.5,1.6z"/>
	</g>
</g>
</svg>
