<?xml version="1.0" encoding="utf-8"?>
<!-- Generator: Adobe Illustrator 16.0.4, SVG Export Plug-In . SVG Version: 6.00 Build 0)  -->
<!DOCTYPE svg PUBLIC "-//W3C//DTD SVG 1.1//EN" "http://www.w3.org/Graphics/SVG/1.1/DTD/svg11.dtd">
<svg version="1.1" id="Layer_1" xmlns="http://www.w3.org/2000/svg" xmlns:xlink="http://www.w3.org/1999/xlink" x="0px" y="0px"
	 width="40px" height="40px" viewBox="0 0 40 40" enable-background="new 0 0 40 40" xml:space="preserve">
<g>
	<circle fill="none" stroke="#F05A28" stroke-width="2" stroke-miterlimit="10" cx="20.2" cy="19.9" r="18"/>
</g>
<rect x="14" y="18" fill="none" stroke="#F05A28" stroke-width="2" stroke-linecap="round" stroke-linejoin="round" stroke-miterlimit="10" width="13" height="11"/>
<path fill="none" stroke="#F05A28" stroke-width="2" stroke-linecap="round" stroke-linejoin="round" stroke-miterlimit="10" d="
	M16,18v-2.9c0-2.5,2-4.5,4.5-4.5s4.5,2,4.5,4.5V18"/>
<g>
	<g>
		<polygon fill="#F05A28" points="5,33.9 32,3.3 35,6 8,36.6 		"/>
		<path fill="#FFFFFF" d="M32.1,4.7l1.5,1.3L7.9,35.2l-1.5-1.3L32.1,4.7 M31.9,1.9l-1.3,1.5L4.9,32.5L3.6,34l1.5,1.3l1.5,1.3L8.1,38
			l1.3-1.5L35.1,7.4l1.3-1.5l-1.5-1.3l-1.5-1.3L31.9,1.9L31.9,1.9z"/>
	</g>
</g>
</svg>
