<?xml version="1.0" encoding="utf-8"?>
<!-- Generator: Adobe Illustrator 16.0.4, SVG Export Plug-In . SVG Version: 6.00 Build 0)  -->
<!DOCTYPE svg PUBLIC "-//W3C//DTD SVG 1.1//EN" "http://www.w3.org/Graphics/SVG/1.1/DTD/svg11.dtd">
<svg version="1.1" id="Layer_1" xmlns="http://www.w3.org/2000/svg" xmlns:xlink="http://www.w3.org/1999/xlink" x="0px" y="0px"
	 width="40px" height="40px" viewBox="0 0 40 40" enable-background="new 0 0 40 40" xml:space="preserve">
<g>
	<path fill="none" stroke="#22BBB9" stroke-width="2" stroke-miterlimit="10" d="M37.8,20.3c0,9.9-8.1,18-18,18c-9.9,0-18-8.1-18-18
		c0-9.9,8.1-18,18-18C29.8,2.3,37.8,10.4,37.8,20.3z"/>
</g>
<polygon fill="none" stroke="#22BBB9" stroke-width="2" stroke-miterlimit="10" points="29,29.2 11.3,29.2 11.3,11.3 26,11.3 
	29,14.3 "/>
<rect x="15.7" y="11.3" fill="none" stroke="#22BBB9" stroke-width="2" stroke-miterlimit="10" width="8.2" height="6"/>
<g>
	<g>
		<polygon fill="#22BBB9" points="4.8,34.3 31.8,3.7 34.8,6.3 7.8,37 		"/>
		<path fill="#FFFFFF" d="M31.9,5.1l1.5,1.3L7.7,35.5l-1.5-1.3L31.9,5.1 M31.7,2.3l-1.3,1.5L4.7,32.9l-1.3,1.5l1.5,1.3L6.4,37
			l1.5,1.3l1.3-1.5L34.9,7.8l1.3-1.5l-1.5-1.3l-1.5-1.3L31.7,2.3L31.7,2.3z"/>
	</g>
</g>
</svg>
