<?xml version="1.0" encoding="utf-8"?>
<!-- Generator: Adobe Illustrator 16.0.4, SVG Export Plug-In . SVG Version: 6.00 Build 0)  -->
<!DOCTYPE svg PUBLIC "-//W3C//DTD SVG 1.1//EN" "http://www.w3.org/Graphics/SVG/1.1/DTD/svg11.dtd">
<svg version="1.1" id="Layer_1" xmlns="http://www.w3.org/2000/svg" xmlns:xlink="http://www.w3.org/1999/xlink" x="0px" y="0px"
	 width="40px" height="40px" viewBox="0 0 40 40" enable-background="new 0 0 40 40" xml:space="preserve">
<g>
	<circle fill="none" stroke="#22BBB9" stroke-width="2" stroke-miterlimit="10" cx="20" cy="20" r="18"/>
	<text transform="matrix(1 0 0 1 13.2324 29.7559)" fill="#22BBB9" font-family="'FuturaStd-Medium'" font-size="25.2043">S</text>
	<line fill="none" stroke="#22BBB9" stroke-width="2" stroke-miterlimit="10" x1="20" y1="10.9" x2="20" y2="8.1"/>
	<line fill="none" stroke="#22BBB9" stroke-width="2" stroke-miterlimit="10" x1="20" y1="32.5" x2="20" y2="29.8"/>
</g>
<g>
	<g>
		<polygon fill="#22BBB9" points="5,34.2 32,3.6 35,6.2 8,36.8 		"/>
		<path fill="#FFFFFF" d="M32.1,5l1.5,1.3L7.9,35.4l-1.5-1.3L32.1,5 M31.9,2.2l-1.3,1.5L4.9,32.8l-1.3,1.5l1.5,1.3l1.5,1.3l1.5,1.3
			l1.3-1.5L35.1,7.7l1.3-1.5l-1.5-1.3l-1.5-1.3L31.9,2.2L31.9,2.2z"/>
	</g>
</g>
</svg>
